<svg xmlns="http://www.w3.org/2000/svg" viewBox="0 0 686.75364 445.40376"><defs><style>.cls-1{fill:#f77c37;}.cls-2{fill:#232323;}.cls-3{fill:#8cead8;}.cls-4{fill:#b9e54e;}</style></defs><title>Asset 7</title><g id="Layer_2" data-name="Layer 2"><g id="Layer_3" data-name="Layer 3"><path class="cls-1" d="M337.01492,387.17611a80.96723,80.96723,0,0,0-21.55552-23.15028,25.52939,25.52939,0,0,0-10.8482-4.35951c-6.42063-1.04412-11.32024.48258-13.70357,7.0644-.07356,12.50431,5.19,23.15019,11.66968,33.37223a3.63656,3.63656,0,0,1,1.84882,1.32615c2.18838,3.1252,4.54421,6.16937,8.03758,8.02826a30.9677,30.9677,0,0,1-1.07247-3.47631c-1.055-5.59635-3.20556-11.11-1.50432-16.94064.27671-.94865-.39988-2.54584,1.13968-2.7034,1.66189-.17025,1.63905,1.51709,2.10783,2.59823,3.28975,7.58661,6.39191,15.3139,11.03961,22.1675,2.57753,3.80086,4.59408,8.43532,9.56129,10.104,6.85528.59968,10.893-5.13792,10.76718-11.37963C344.332,401.3671,341.333,394.066,337.01492,387.17611Z"/><path class="cls-1" d="M133.3046,33.4295c-4.03814-1.56632-5.56829-5.9621-9.12963-8.06759a3.31282,3.31282,0,0,0,.35849,2.36692,37.99364,37.99364,0,0,1,2.55012,19.74874c-.12409.83109.2398,2.12209-1.08794,2.39555-1.3117.27009-1.64613-.87118-1.89507-1.73853-1.08757-3.78892-3.01321-7.24593-4.54439-10.83058-3.5908-8.40622-8.01874-16.41545-15.31791-22.37-9.39851-.22964-13.88258,5.321-12.02107,14.74974,2.56718,13.003,9.38489,23.57459,18.7971,32.59261,4.6009,4.40808,9.04339,9.18826,15.10758,11.63173,4.95182,1.99539,9.91428,4.29387,15.45524.92879,3.07541-1.86784,2.75944-5.07377,4.23225-7.52693.4382-4.02136-.71594-7.79648-1.98336-11.50056A107.472,107.472,0,0,0,133.3046,33.4295Z"/><path class="cls-2" d="M332.48908,357.34751c-6.90041-8.11767-14.57149-16.05595-25.69183-17.54554-5.89265-.78941-8.76834-2.88642-11.28677-8.05977-3.57057-7.335-8.38534-14.0655-12.65357-21.06325-.4244-.6958-1.76212-1.12812-.64993-2.3189,4.13742-4.43018,6.19826-10.22018,9.90392-14.96987q16.9075-21.67095,32.18154-44.53322a5.88559,5.88559,0,0,0,.90008-4.8916c-2.19519-11.39072-7.34644-21.41436-13.3187-31.19419-8.37369-13.71187-16.497-27.548-31.14972-35.80376-1.67765-.9452-2.63656-2.74107-3.61915-4.39951-1.102-1.85992-1.15824-3.32052.70159-4.978,1.439-1.28234,3.96364-2.48011,2.55171-5.30341,2.59348-1.29054,2.27695-5.4661,4.37414-6.03865,5.07844-1.38638,3.18654-3.809,2.43126-7.05713-2.28124-9.81079-2.00555-20.53731,7.5192-25.46257,2.67468-1.38312,5.5005-2.51712,7.9517-4.63772-3.3717-2.51078-7.067-2.79467-10.95634-2.85528-1.8685-.02908-4.20838,2.35331-5.46359-.04521-1.032-1.972.70438-4.2109,1.43021-6.27015a26.87272,26.87272,0,0,1,1.39095-2.7972c-6.0875-1.60352-10.847.80125-15.73513,4.43951.16856-4.04606,3.86173-6.1261,3.73512-9.66217-8.00522-.17612-15.19474,2.89649-22.11184,6.135-8.14694,3.81437-14.31528,10.04862-15.75825,19.36033-.98735,6.372-1.11321,12.92134,1.27851,19.16659,1.38555,3.61793,1.13745,7.30551.68228,11.01742-.25126,2.04955-1.12644,3.04389-3.504,2.87644a44.23033,44.23033,0,0,0-17.05057,2.2309c-5.35767,1.77656-10.82554,3.05293-16.25864,4.5015-5.23944,1.397-6.55767.91117-9.25082-3.6073-6.28879-10.55088-12.95267-20.87538-18.88484-31.64479-1.5199-2.75925-2.62555-5.05243-1.52661-8.36987.74046-2.23509.37294-4.94893.06722-7.39454-.76852-6.1482-4.98781-9.4716-11.286-9.04562-1.59355.10778-2.81621-.35522-3.39231-1.7582-2.14334-5.21875-5.69144-9.60343-8.47185-14.44123a2.38552,2.38552,0,0,1,.2245-3.21209c6.90843-8.64667,7.53141-18.18381,4.01585-28.39607a122.84186,122.84186,0,0,0-24.57358-42.45616c-4.00224-4.479-8.85533-8.147-12.36688-13.09056-.56127-.79034-1.65844-1.4716-2.488-.85588-.82288.61086-.37909,1.75745.0965,2.6248.2645.4823.57124.94306.87965,1.39953,3.91181,5.7914,8.0552,11.44415,11.64218,17.42947,1.6934,2.82582,4.50626,5.28345,4.30637,9.06A107.472,107.472,0,0,1,143.826,55.80939c1.26742,3.70408,2.42156,7.4792,1.98336,11.50037.037,1.646.16857,3.29618.096,4.93728-.53777,12.164-9.80706,17.36429-20.58673,11.81764-9.97516-5.1326-16.6435-13.56726-22.99756-22.30335-7.23428-9.94625-13.11592-20.58626-15.20594-32.93039-.25163-1.48651-.45479-2.9873-.56854-4.48985-.38039-5.02464,1.68324-9.01187,5.98448-11.3745,4.1709-2.29094,8.21221-1.1298,11.70716,1.96742,7.29917,5.95455,11.72711,13.96378,15.31791,22.37,1.53118,3.58465,3.45682,7.04166,4.54439,10.83058.24894.86735.58337,2.00862,1.89507,1.73853,1.32774-.27346.96385-1.56446,1.08794-2.39555a37.99364,37.99364,0,0,0-2.55012-19.74874,3.31282,3.31282,0,0,1-.35849-2.36692,21.59955,21.59955,0,0,1-2.18754-3.32043C117.268,13.105,110.7277,5.77707,101.48844,1.45681,94.7869-1.67687,87.767.4759,83.03135,5.70612c-5.86952,6.48244-5.89506,14.13915-4.40845,21.82626C83.04814,50.41452,94.97747,69.30766,111.24841,85.519c6.73175,6.707,14.81725,11.70893,25.02885,10.63591,2.58788-.27187,3.73559.56033,4.86157,2.56439,3.3469,5.95678,6.465,12.09146,10.37588,17.6645,2.48514,3.54139,2.53222,7.04063,1.57126,10.562a123.84733,123.84733,0,0,0-2.66247,13.33493c-2.51721,15.90425-5.45379,31.746-5.54162,47.9562-.023,4.24064,1.70524,6.328,5.26239,7.66669A55.38983,55.38983,0,0,0,165.878,199.076c10.76456.76806,21.54862.46971,32.32083.76871,1.99464.05547,4.1213.02144,4.856,2.25383,1.31179,3.98583,4.06545,7.11689,6.0475,10.69706a7.60524,7.60524,0,0,1,1.00105,6.16815c-1.46731,5.55365-2.59879,11.19578-3.86658,16.802-.619,2.73687-.59866,4.768-4.68341,6.11938-10.029,3.31791-19.03149,9.11434-27.037,16.17818-8.312,7.33413-8.38179,15.90071-.29,23.25834,4.74532,4.31494,10.53662,6.27611,16.71735,7.13778,16.849,2.34874,33.19947-.67474,49.4568-4.72583,3.17656-.79155,6.63553-3.68916,9.26248-2.34482,2.51805,1.28867,3.67778,5.22555,5.42358,8.0055.06219.099.00793.271.00793.7247-32.24914,6.452-64.65686,9.3477-97.80859,3.81391,13.47021,8.101,20.0938,18.26652,11.27381,33.95746-4.9081-18.38567-13.45175-29.23518-22.562-29.00107,8.02583,14.46044,6.98954,27.78-2.93741,34.49719-.49405-9.0569-1.99809-17.64838-8.3459-24.58412-6.24433-6.82274-16.02211-11.29041-22.98358-10.19025,9.47216,6.98572,16.06415,15.46746,13.12151,27.79826-1.41417,5.92592-4.65618,11.24994-11.38233,13.49519,0-3.19064.02554-5.95-.00438-8.70867-.14433-13.31628-6.66938-23.47035-17.09644-30.72365-14.964-10.40944-33.80166-6.60868-44.38386,8.06023-3.721,5.15815-6.27024,12.32437-5.81983,16.36567.26674-.05212.65571-.01548.778-.17835.57655-.76816,1.038-1.62255,1.61611-2.3893,5.1437-6.82163,11.28173-12.08625,20.35159-12.48053,9.66842-.4203,18.05525,6.43815,18.92176,15.36238.97383,10.02783-4.72368,17.58777-14.9364,19.24994a51.98338,51.98338,0,0,1-33.65948-5.63215c-9.549-5.17558-12.32492-12.22218-8.63995-22.7738,2.23369-6.396,5.94727-12.0345,9.898-17.39264,9.051-12.27569,21.48083-21.12216,32.969-30.845,7.29721-6.17589,15.61952-11.11214,23.89325-15.9794,5.91307-3.47846,11.87722-6.8703,17.81816-10.30148.83593-.48286,1.99576-1.02333,1.54143-2.10111-.534-1.26677-1.55364-.396-2.40561-.0496-2.03464.82735-4.15356,1.46908-6.13272,2.40794-19.049,9.03583-37.47246,19.04064-54.63192,31.47726-15.70026,11.37906-31.34663,22.63329-43.66372,37.83466a59.794,59.794,0,0,0-6.42846,9.5529c-6.81715,12.83641-3.48162,23.61655,9.44634,30.47984,15.15307,8.04457,31.74371,8.93253,48.34209,8.936,19.937.0041,39.59576-2.97788,58.9849-7.44825,21.9-5.04916,43.63548-10.50892,64.89125-18.15967,21.07741-7.58651,42.30512-14.74788,63.13081-23.03345,2.09943-.83528,2.99448-1.34732,2.09514-3.955-1.75409-5.08627.08587-9.90692,4.47867-12.99453.86838-.61022,1.93982-2.372,3.30159-.144.9644,1.57789,1.65872,2.702-.40044,3.87395-2.90059,1.6508-3.66213,4.31281-3.16146,7.42243.52957,3.289,9.04534,10.64839,12.31308,10.66508a1.49981,1.49981,0,0,0,1.0225-.46617c1.54516-1.81787,2.43265-.78428,3.29711.67688,5.2787,8.92134,10.54425,17.85069,15.88244,26.73642.81113,1.35021.46887,1.86719-.60043,2.98711-6.26585,6.56234-8.862,14.40366-7.20639,23.417,2.295,12.49358,8.4588,23.39464,14.92921,34.01488,6.9405,11.392,16.67195,20.49145,26.43089,29.46947.23486.216.71613.54225,1.07266-.27961.12344-1.06771-.81179-1.77666-1.439-2.64475q-8.929-12.35886-16.58374-25.54331c-.80936-1.39039-2.02914-2.73631-1.10454-4.56826-6.47964-10.222-11.74324-20.86792-11.66977-33.37418a14.59009,14.59009,0,0,1,.35848-6.936c2.2459-9.57462,9.57369-13.29231,18.4913-9.11246,8.99872,4.21779,15.86687,10.79524,21.68,18.96744,5.194,7.30187,10.1853,14.63209,13.92854,22.74891,3.0189,6.54631,5.05466,13.40327,4.78522,20.72192a10.50669,10.50669,0,0,1-6.96334,9.85591,8.24344,8.24344,0,0,1-9.4524-1.76771c-4.96721-1.66869-6.98376-6.30315-9.56129-10.104-4.6477-6.8536-7.74986-14.58089-11.03961-22.1675-.46878-1.08114-.44594-2.76848-2.10783-2.59823-1.53956.15756-.863,1.75475-1.13968,2.7034-1.70124,5.83064.44929,11.34429,1.50432,16.94064a30.9677,30.9677,0,0,0,1.07247,3.47631,111.055,111.055,0,0,0,8.71753,13.41967,37.82663,37.82663,0,0,0,18.02429,12.04634c7.02049,2.34306,17.78245-5.56977,19.01248-14.31844,1.06361-7.56535-.111-14.859-2.384-21.94981A120.26851,120.26851,0,0,0,332.48908,357.34751ZM174.26128,171.45842c-.819.07636-2.09039,1.02921-2.156-.66364-.33126-8.53563-3.76571-16.5953-3.25945-25.37921,4.73459,7.73774,9.46909,15.47557,14.63991,23.92645C179.42838,168.46963,177.22033,171.18245,174.26128,171.45842Zm98.15458,120.24022c-.77057.41554-1.37725-.77822-1.78934-1.44074-2.58443-4.15486-5.06855-8.37228-7.67508-12.51307-1.35758-2.15677-1.03173-3.20742,1.30723-4.70932a45.017,45.017,0,0,0,13.70273-14.31826c6.20516-9.94812.36249-18.90824-11.13629-21.3147-1.77853-.37218-1.97208,1.8423-3.92765,1.42378,3.20229-7.5027,7.86369-13.91447,11.52516-20.875.67539-1.28411,1.28346-2.72783,3.20174-.91332,8.17444,7.732,16.41676,15.36658,22.08639,25.29521a5.84,5.84,0,0,1,.63511,5.29017A192.03908,192.03908,0,0,1,281.684,287.20059C279.43533,290.91772,275.4315,290.07237,272.41586,291.69864Z"/><path class="cls-2" d="M414.87309,193.38566c-.257-.09594-.53926-.12223-.80069-.20838-15.89223-5.24075-32.17538-5.6356-48.6562-4.09566-19.23651,1.79745-27.93139,19.74073-21.74021,35.78707,2.56169,6.63954,11.477,15.00707,19.14664,13.92892A14.70478,14.70478,0,0,0,373.7897,234.725c5.32327-4.84871,7.88794-12.24185,5.69583-19.00744-2.59469-8.00821-13.71811-10.82359-19.1638-4.80638-2.28366,2.52318-3.09675,5.45426-1.59793,8.69962,1.497,3.24146,4.42245,2.65614,7.16454,2.57978,1.10323-.03068,2.32571-1.85041,3.23912-.14908.86036,1.6025.12866,3.18523-1.05745,4.52724-3.31558,3.75162-11.19978,3.42428-14.93994-.5981a13.16577,13.16577,0,0,1-2.88214-13.50992,16.86878,16.86878,0,0,1,12.03917-11.77811c12.42151-3.38858,23.61551,6.315,26.69483,16.857,1.752,5.99744.678,11.69038-1.89758,17.208-.34711.74364-1.03088,1.51552-.29108,2.22605.54915.52742,1.14827.006,1.71765-.45162,3.93483-3.16258,7.92476-6.25672,11.87954-9.39469,7.25265-5.75484,14.27612-11.75536,19.25163-19.70763C423.86585,200.66888,422.27808,196.15069,414.87309,193.38566Zm-4.75789,14.84792a17.40079,17.40079,0,0,1-2.13347,2.98534c-2.20926,2.374-4.51167,4.66149-7.6059,7.83293,1.07209-9.914-2.64774-16.38711-10.48039-21.54648,6.15761-.39214,11.53766-.432,16.737,1.21307C411.69075,200.3187,412.82121,203.6821,410.1152,208.23358Z"/><path class="cls-2" d="M314.45322,212.26416c.56994,1.01886,1.417,2.175,2.51927,1.55738,1.49192-.83594.11132-1.81312-.47829-2.55125a9.86434,9.86434,0,0,1-2.344-6.00918c-.03552-1.661-1.03946-4.03693,1.19367-4.696,2.366-.69823,4.53563.40006,5.73321,2.80866.54952,1.10538,1.13186,2.19444,1.68595,3.29758a15.06806,15.06806,0,0,0,9.08515,7.77176c2.62965.89067,3.57793.51615,3.71657-2.4677.37387-8.04653,3.40946-14.86731,10.12461-19.73653a2.13431,2.13431,0,0,0,.92087-2.30306c-14.2461.17472-28.234,1.72464-42.51733,3.12808,2.06681,4.3583,4.70513,7.67891,6.19267,11.67285C311.27517,207.39392,313.05089,209.7573,314.45322,212.26416Z"/><path class="cls-2" d="M307.21065,282.33351q.27551.24866.53189.51689c7.1858-2.66891,13.60036-6.76624,20.11944-10.6814C320.396,274.40884,311.292,273.3567,307.21065,282.33351Z"/><path class="cls-2" d="M307.74253,282.8504c-.12658.38372-.36755.684-.74781.38177-.10113-.08039.13693-.58624.2176-.8977Q307.48529,282.58172,307.74253,282.8504Z"/><path class="cls-3" d="M475.23505,278.56184h-.08176c.013.01753.02843.0289.04139.04662Z"/><path class="cls-3" d="M485.9902,285.235c.01231-.00018.02229.00383.0345.00373.00569-.01575.00186-.03151.00848-.04727Z"/><path class="cls-3" d="M491.40279,288.35864c-2.135-.8791-3.10841-3.13433-5.37809-3.11988-.37862,1.0528,1.37547,2.09422.27159,2.93873-1.236.94557-1.80351-.66345-2.65818-1.18724-1.96873-1.20654-3.97166-2.35722-5.938-3.56749-3.15186-1.93991-6.77846-2.78013-10.09179-4.86092h7.54493c-2.58565-3.48759-6.64765-3.39865-10.30782-3.922-3.00212-.42924-5.09736-1.55793-6.21682-4.37321q-.33283-.03049-.66615-.05753l-2.74293.11944a3.49226,3.49226,0,0,0,.1956.794c-1.28094,1.187-1.74608.6477-1.77927-.80554-1.78067.36343-3.35063-5.29222-5.34266-.20436-.00569.01445-.88152-.12578-1.039-.38357-2.01711-3.304-4.98008-1.57425-8.76331-1.81982,5.34023,3.78314,11.61047,3.4378,15.82025,7.66044-2.05533,1.114-3.831-1.46237-5.27059.64658.87174.88031,1.88369.647,2.81053.76218.15617.37191.20884.93775.48612,1.08664,8.71259,4.67706,13.33185,12.76508,16.0043,21.53389,4.82912,15.84514,2.23509,31.26058-6.21673,45.36794-4.26422,7.11764-10.35853,12.8489-19.24836,13.75541-6.46929.65972-12.68658-.38328-17.39981-5.60446-2.53195-.40128-1.197-3.38345-3.02534-4.33154,2.37876-.38841,3.73279.82978,4.77309,2.60569a8.74076,8.74076,0,0,1,2.43573.38422c5.62637,2.66033,11.09135,2.43591,16.85067.05044,7.5371-3.12184,12.112-9.0032,14.98348-16.02863,2.88446-7.05732,4.49666-14.58323,1.60977-22.6609-.58541,3.8388-1.10612,7.253-1.62683,10.66723-1.38349-3.24509-.92049-6.755-2.81248-9.68333-2.45755-10.82461-9.1382-18.53652-18.53876-23.81056a67.69314,67.69314,0,0,0-29.58564-8.75884c-8.26339-.49413-16.36035-.02163-23.92113,2.40944-11.63845,3.7423-22.09973,9.75019-29.23639,20.49489-5.12635,7.71816-9.67811,15.51911-12.14824,24.55858-.82773,3.029-.509,6.35079-2.27574,9.13232-.61413.96683-1.21568,1.89964-2.56458,1.65378-1.30294-.23747-1.14537-1.34695-1.289-2.27126a32.78236,32.78236,0,0,1,3.52945-20.614c5.93936-11.30047,12.72751-22.051,23.68451-29.354,4.14088-2.76,8.38907-5.35953,12.53135-7.99581-.68965-1.88406-2.79338-.14628-3.33525-1.49323.26236-1.36979,2.23742-.90623,1.96257-2.88437-2.89108.9866-5.72613,1.954-8.56109,2.92148l-.546-1.14668c7.65317-4.33424,14.63534-9.689,23.573-11.94341,9.02762-2.27714,18.08583-.182,27.21629-1.51561-2.98469-.96124-5.96947-1.92248-8.56407-2.758.538-5.10165,5.42275-3.91543,8.14806-6.10074H401.39981c-1.4,2.82685-3.90966.7289-5.83111,1.39058,1.53118-1.9056,3.99124-1.70244,5.84817-2.79244q3.31125-.2878,6.62192-.57889c7.25376.31057,14.56188-.47241,21.71784,1.69024-2.29924-3.26579-5.46144-3.20258-8.608-3.28789-5.23237-.14162-10.47573-1.82943-15.68777.14722-19.5178-.63725-42.52655,12.94763-49.22763,25.40019,2.42137-.38915,3.727-2.8012,6.08648-3.07839.27877-.4409.8309-.86455,1.10547-.38337.33956.5952-.46747.5553-.83668.72219-.455,1.55224-1.68417,2.3299-2.90189,3.273A62.01036,62.01036,0,0,0,337.86455,308.107c-.70344,2.244-2.4526,4.49545-1.55914,7.83256,1.64594-2.68317,2.74964-5.02809,4.35018-6.96353,2.38343-2.88213,3.45245-6.72876,6.68168-8.95975.30171-1.7719,1.62423-2.66126,3.39445-3.84971a5.12625,5.12625,0,0,1-3.09955,4.16288c-.21854,1.20831-.03244,2.7724-.72815,3.55976-3.75676,4.25145-6.042,9.38042-8.77767,14.22167a75.2148,75.2148,0,0,0-8.778,22.47694c-.51074,2.6043-.38114,4.87146,2.28627,6.81174A41.27694,41.27694,0,0,1,342.229,359.35762a5.28193,5.28193,0,0,0,5.10249,2.85547c9.02138-.59921,17.88063-1.42125,25.85462-6.68392,3.07288-2.028,3.79041-4.04457,3.188-7.06058-1.392-6.97024-1.203-14.033-.61059-20.9881.91872-10.7861,5.46209-20.30227,12.29919-28.63987,6.81417-8.30954,16.38264-11.52881,26.4831-13.40429a19.30813,19.30813,0,0,1,8.972.42151c-4.62,1.6755-8.28166,2.81323-11.78762,4.31354-7.96178,3.40694-15.43464,7.50055-19.52219,15.73532h-.00009a9.66531,9.66531,0,0,0-1.81778,1.58795c-7.61653,11.06972-10.26511,23.31885-8.5705,36.56763.01725.13481.44118.21779.68611.32995,1.34191-1.05214,1.50339-2.53819,1.50964-4.07478.01221-3.02151-.12549-6.05095.04745-9.063.37564-6.54257,3.42373-10.41633,9.49361-11.7919,2.24124-.50794,4.64751-.29052,6.97844-.40389q1.24383.05383,2.48748.108a2.16522,2.16522,0,0,0-2.48925-1.50945c-2.48663-.39167-4.97317-.784-7.65084-1.20644,3.10505-2.03287,6.16983-3.316,9.8767-2.88176-2.43694-.981-4.41629-2.47852-6.94488-2.67459-5.33772-.41387-5.33343-.46915-2.61884-4.92236q-.24711-.01651-.49367-.03273.24684.01623.49367.03263c1.025-1.0816,2.07352-2.14185,3.06972-3.24891,5.30192-5.8919,15.265-11.03522,23.8623-7.65,4.84144,1.90634,9.448,7.71713,9.32057,12.57488,2.0696-1.52838,2.0434-5.00693-.29434-7.73466-1.92639-2.24786-4.09874-4.28586-6.16293-6.41578,1.33912-.62858,3.74753,1.75662,4.22843-1.47812.01715-.11533,1.264-.33537,1.51709-.0841,2.37121,2.3534,7.0838,1.88033,7.85615,5.97972,1.07181,5.68977,1.67084,11.43483-3.4283,15.83676-2.61688-.57814-1.94149-4.10433-4.41694-4.738a18.07613,18.07613,0,0,1-3.1429,2.6704c-2.68839,1.40148-5.83233,1.84071-7.96113-.45135-1.56138-1.68109-2.56877-4.39317-.2356-6.71869.71781-.71548,3.00716-1.023,1.4275-2.43545a2.74364,2.74364,0,0,0-4.277.82325c-1.25017,2.465-2.193,5.011-1.24569,7.919,1.42339,4.36892,6.56383,8.17146,11.59183,8.37116,6.92278.275,9.89991-1.59271,12.27579-7.1677,2.26856-5.323,1.6727-10.82051,1.26928-16.2758-.1558-2.10624.53143-2.93881,2.07948-1.90513,8.06014,5.38247,14.18755,12.31942,16.587,22.00341a26.87352,26.87352,0,0,1,.72647,9.40056c-.7234,12.413-10.3411,25.4951-23.5633,24.77506-4.83305-.26329-11.33665-3.69727-12.12979-7.93409-1.28327-6.85444,1.51561-12.07011,8.12-14.52421,1.71419,1.24476,3.42838,2.48962,4.92012,3.5729.65823-2.537-1.31953-4.055-3.96252-5.1795-3.70352-.33573-7.30439-.76591-10.55712,1.98513-9.38891,7.94071-7.73187,24.27794,3.18644,30.072,12.608,6.69072,26.80168,3.42959,36.73973-5.71364,8.98819-8.26936,12.08728-19.33013,12.94689-31.10553.22078-3.02375.24968-4.51353,4.42813-4.10219a17.7105,17.7105,0,0,0,14.88335-5.53956c6.33345-6.55358,5.81591-21.573-1.07508-29.64727q-1.22132-.00573-2.44263-.01156C489.436,284.12854,491.82942,285.707,491.40279,288.35864Zm-68.776,4.73981c.07785.03049.19244.03972.22526.09631a.58093.58093,0,0,1,.04857.20512Zm36.127-16.22824q-.44821-.742-.8956-1.48307a2.88883,2.88883,0,0,0-.38-1.90476,2.89241,2.89241,0,0,1,.38077,1.906c1.95744-.38142,2.61548.54626,2.41232,2.34175Q459.51242,277.3002,458.75377,276.87021ZM485.203,308.02926c-3.40582,2.66452-7.03224,2.36076-10.477.77542-2.41261-1.11023-2.914-3.7148-2.858-6.39508.05445-2.60644,1.66562-3.95581,3.51361-5.1782,1.10547-.73132,2.05514-.06983,2.95131.695,1.30116,1.11041,2.67571,2.13514,4.1432,3.2945-.23718-6.07333-4.47754-8.98073-9.6177-6.74191-2.452,1.06809-3.78071,1.07983-4.67128-2.09636-1.01988-3.63732-3.01667-7.00156-4.58914-10.4844-1.91148-.7289-3.24369-1.9166-3.29553-4.1184,2.51786.22693,2.75058,2.72754,4.09062,4.12624,3.05023,2.75924,7.26169,1.55308,10.72448,3.2022,6.19211,2.949,11.34131,6.71916,13.029,13.73387C488.99466,302.367,488.36514,305.55549,485.203,308.02926Z"/><path class="cls-3" d="M235.03841,346.80036c12.07842-4.18134,23.96263-8.6463,35.32743-14.48636,2.1868-1.12374,1.88267-2.67674,1.16113-4.52-1.75913-4.49386-5.9511-6.16293-9.61742-8.48352-2.9074-1.84024-5.61285-1.45519-8.60509-.03869a92.45533,92.45533,0,0,1-11.76794,4.71016c-14.73977,4.63185-29.14287,10.21943-43.77095,15.15634-9.81051,3.3111-19.79527,6.10783-29.70609,9.12179-4.71548,1.434-9.44028,2.838-14.16079,4.25555a17.7639,17.7639,0,0,0,7.96057.29229c7.62744-1.5418,15.22094-3.29385,22.89631-4.54393,7.99786-1.30266,15.90724-3.00491,23.85913-4.51381,6.96782-1.32214,13.76016-3.59527,20.91193-3.93483,1.40242-2.79132,3.88169-.98744,6.52-1.75792-1.89907,2.0848-3.88943,2.01618-5.62889,2.52794q-16.5615,7.154-33.12217,14.30931-5.44689,2.07718-10.89369,4.15458c4.58644-.5636,9.32727-.11114,13.4178-2.567a45.925,45.925,0,0,0,11.0811-2.26315C218.90014,351.60776,227.06638,349.56008,235.03841,346.80036Z"/><path class="cls-3" d="M349.72629,273.3608c-1.1161.47493-2.16814.41806-3.30793,1.11908-6.14307,3.77792-12.38347,7.42625-18.77519,10.76644-10.6099,5.54432-21.42826,10.69156-32.02734,16.25556-6.81006,3.57495-7.46176,6.64709-3.73018,13.08356,3.228,5.56791,6.69846,11.04968,9.29977,16.90689,1.7142,3.85978,3.823,3.59714,6.644,2.19183q8.01609-3.99329,15.912-8.22525c1.95082-1.0431,3.58623-2.33821,3.78678-4.96441.85178-11.15363,5.3035-21.04824,10.8729-30.56692C341.77207,284.16639,346.20738,279.15648,349.72629,273.3608ZM321.663,319.05991c-.06182.959-.63838,1.32345-1.30975,1.87017a32.45777,32.45777,0,0,1-11.673,5.77592c.50757-1.46722.84246-2.43508,1.20188-3.474-1.68-1.06995-3.46288,1.23451-5.12421-.44584,3.20527-4.13156,8.49656-6.2695,11.0231-11.45963-3.79871,1.59477-7.68152,1.10053-11.50046,1.37082-3.11475.2204-3.63714-.62672-1.23208-2.85826-1.53453-1.23628-3.30877-.06741-5.321-1.20468,10.78433-4.50346,19.65756-11.50763,30.87468-16.37928C325.31531,301.72461,322.24112,310.08431,321.663,319.05991Z"/><path class="cls-3" d="M509.41823,233.72645c-1.55337-3.72683-3.27661-7.32211-6.89911-9.45137a108.88825,108.88825,0,0,1,5.13606,11.21833c.09416.8019.13724,1.61369.28921,2.40459,2.14465,11.1664,1.67093,21.93694-4.63073,31.89261-2.62807,4.15206-8.551,6.597-13.21829,5.43831-1.80892-.4491-1.62385-1.44484-.58672-2.22474,2.47181-1.85907,3.35744-4.9328,5.61789-6.91374a8.43157,8.43157,0,0,0,1.83978-1.57369c6.37121-9.92751,5.98755-20.24829,1.67792-30.76746-.31587-.77095-.74121-1.68287-1.75866-1.34117-4.11962,1.3835-4.12652-1.29193-4.50608-4.126-.2825-2.11-.41125-5.01168-4.21043-4.08913.02853,1.39543,2.35919,2.50864.47922,3.91143a1.7556,1.7556,0,0,1-1.45724.32753,3.46139,3.46139,0,0,1-2.11472-3.66287,5.91527,5.91527,0,0,0-.08941-2.86208c-.66551-1.5171-1.973-3.18766-3.69373-2.31313-1.809.91938-.07217,1.87623.66382,2.80363,1.09027,1.37379-.32557,1.76864-1.14239,1.79521-2.29663.07459-4.04886-.61627-3.94518-3.48554.12036-3.33189-1.77032-3.863-4.63175-3.12556.28249,1.60446,2.6468,3.15922.51008,4.38151-1.89274,1.08282-3.67882-.05482-4.86922-1.90448-.8088-1.2567-1.52689-2.67888-3.28593-2.88232-2.51236-3.23138-3.78668-1.43235-5.08188,1.08077,1.40428,1.05736,2.83784.26459,4.0964.67305-.2425,3.82034-1.33,4.55372-4.83444,3.6018a11.85563,11.85563,0,0,1-4.55409-2.6993c-2.71263-2.33671-5.126-1.40615-7.91749-.19849,1.07964,1.55858,2.46388.726,3.55714,1.04981,2.04415.60555,2.47321,2.15164,1.92574,3.88541-.51148,1.61957-5.12869,2.57176-6.703,1.49715-3.09256-2.1109-6.40021-3.17367-10.12526-2.08386-2.25532.65981-3.19391,2.50956-3.67331,4.58839-.32427,1.40615.6186,2.39657,1.64818,3.10375a2.15549,2.15549,0,0,0,3.2684-.46468c.453-.63277,1.16887-1.38265.1047-2.06391-.74466-.47679-2.67609.18722-1.94112-1.59644a2.63786,2.63786,0,0,1,2.9046-1.86905,3.73888,3.73888,0,0,1,2.89042,2.6401c.52668,1.77684.4988,3.76626-1.29137,4.83155-1.73033,1.02976-3.08464,3.02356-5.8671,1.76351-2.09291-.9479-3.91926-3.20789-6.69847-2.242q-.446.57744-.89224,1.1547l-.00867-.008c-4.252,1.16309-4.7689,2.383-1.67783,5.87158-.43746-3.09163.3679-4.84,3.33757-4.33,2.07911,2.84614,2.45718,5.49146-.94259,7.65923-3.84654,2.45261-7.25451,2.19565-10.11221-.74242-1.93665-1.99119-2.30334-7.0369.00494-9.6576a59.24532,59.24532,0,0,1,23.97409-16.68863c6.56468-2.41233,13.60111-4.24866,21.66666-3.69541-6.18577-2.77873-12.07749-.71165-18.09087-1.97459,6.97518-4.74028,14.39247-4.81384,21.78842-5.33213-5.5543-.56108-10.94852-1.78262-16.52762-.01958a27.02021,27.02021,0,0,0-13.63122,9.08487c-4.17966,5.31544-10.98665,6.3218-16.20941,9.943-8.31709,5.76668-12.795,13.80016-15.08287,23.43287,1.7968.47241,2.4279-.81132,3.51221-.99024,7.25805-1.19786,14.45354-1.57826,21.50974,1.14575,2.3851.92077,4.25.6958,5.97152-1.78981,2.78964-4.028,5.49631-8.51577,9.32317-11.34727,10.12853-7.49384,21.16944-10.34642,34.27622-7.54866,16.41387,3.50362,25.39451,25.12151,15.02189,37.6702-7.19763,4.518-17.52857,2.42575-22.31872-4.52a6.4491,6.4491,0,0,1,1.74953-8.95807c5.11321-3.41132,9.26937-1.89553,13.21092,5.05326,1.38974-3.393,1.11824-6.60784-1.10818-8.96842-4.13714-4.38655-9.73079-5.0458-15.28966-3.90938-6.82125,1.39441-10.12349,5.3367-11.24984,11.37162-.45181,2.42053.52322,6.14353-4.87444,6.05785,13.99371,3.98359,26.03567,8.60238,35.70511,21.25633q1.22118.00573,2.44291.01156c.47018-2.0255,2.14988-2.70722,3.82957-3.20453,7.91246-2.3424,12.98353-8.02648,15.852-15.177C515.4841,253.4957,513.77289,243.41379,509.41823,233.72645Z"/><path class="cls-3" d="M274.93047,336.61272c-.84759-.81989-1.18761-1.31263-2.84456-.41545-8.38795,4.5416-17.02092,8.63511-25.59692,12.82671-9.78589,4.78307-19.93334,8.71436-30.10075,12.59353q-3.15167,1.11126-6.30343,2.22241.15314.493.30636.986c1.964-.74186,4.43382,1.20579,6.0063-1.61686,5.31609.24828,10.336-1.46115,15.39986-2.59031,7.28994-1.62543,14.45569-3.81651,21.65453-5.837a241.43728,241.43728,0,0,0,25.27676-8.24894c.94343-.38086,1.51392-.72908.94184-1.73218C278.10833,342.0612,277.28694,338.89219,274.93047,336.61272Z"/><path class="cls-3" d="M405.111,320.94081c2.336,2.27079,6.27993,3.40563,5.46843,8.02974-.515,2.93444-2.55032,4.24558-4.4548,6.04545-2.34305,2.2144-4.9328,2.21617-6.96.74308-2.7144-1.97245-5.2167-4.60146-4.38664-8.63987.206-1.00189,1.01354-1.12952,1.7471-1.499.99835-.50272,2.9597-.79491,1.9911-2.378-.85971-1.40512-2.36711-.58933-3.60684.24493-2.33457,1.57089-4.34953,4.12316-3.74072,6.40133.9123,3.414,2.9874,6.89453,6.69539,8.27094,5.33725,1.9814,9.81163.25685,13.721-4.78634,4.62355-5.96434,1.39851-15.273-6.02279-17.45837.226,1.88826.54383,3.84552-2.50547,3.27194C403.40163,320.19783,404.49927,320.34616,405.111,320.94081Z"/><path class="cls-3" d="M405.49631,315.891c.02275.00653.04326.017.06592.02368l-.009-.07579Z"/><path class="cls-3" d="M403.05676,319.18661c-.00261-.00764-.00886-.01118-.01138-.01892l-.01417.01622C403.041,319.18578,403.047,319.18475,403.05676,319.18661Z"/><path class="cls-3" d="M457.9625,270.20913a1.36165,1.36165,0,0,1,.65114-1.56828l.01156-.01231c2.39984-1.02585,4.73739-1.825,5.91046,1.6177,1.34359-.27774,3.47267,1.01774,3.87637-.98455.39121-1.93972-2.18055-1.56819-3.241-2.52887-1.06174-.96189-2.64447-.70792-3.98872-.59548-4.40491.36818-7.97417-1.3476-11.28117-4.04177-2.29718-1.87157-4.47167-4.0428-7.66091-4.40324a3.94166,3.94166,0,0,0-.30833.28865c.81887,2.21943,3.13405,2.94292,4.54729,4.5389,2.33885,2.64131,6.65576,3.47314,7.18178,7.76412q.77981.02209,1.55915.04438Q456.5908,270.26894,457.9625,270.20913Z"/><path class="cls-3" d="M453.661,270.284l-.02713-.00075.002.03375c.01035-.00214.02042.00131.03077-.00121C453.66536,270.3047,453.66238,270.29509,453.661,270.284Z"/><path class="cls-3" d="M440.57406,256.30026c-.44137.04121-.83193.27672-.68126.76275.31765,1.02445,1.27842.78316,2.03911.918a3.96376,3.96376,0,0,1,.30544-.28641C442.04734,256.79664,441.588,256.20544,440.57406,256.30026Z"/><path class="cls-3" d="M403.04538,319.16769l-.023-.001c.00242.00662.00662.01035.009.01706Z"/><path class="cls-3" d="M404.57087,314.4827c-.11421-.00075-.34841.57143-.329.58448.40342.271.83342.50262,1.25921.74093C405.57658,315.10755,405.49957,314.48848,404.57087,314.4827Z"/><path class="cls-3" d="M405.4964,315.89081l.05688-.05193c-.01763-.00989-.03459-.02089-.05222-.03077C405.498,315.83654,405.5,315.86209,405.4964,315.89081Z"/><path class="cls-3" d="M426.30064,232.67394q-.44657.57811-.8934,1.1561C425.4911,233.27982,425.52994,232.6949,426.30064,232.67394Z"/><path class="cls-3" d="M475.19472,278.60849l1.15273.3014c-.63974.741-.8536.12512-1.11237-.348Z"/><path class="cls-3" d="M438.98056,255.02249c-.09054.03717-.18575.11013-.27017.09928-.08512-.01092-.15952-.105-.23862-.16263Q438.72624,254.99039,438.98056,255.02249Z"/><path class="cls-3" d="M486.03319,285.19154l-.35018-.14966q.15358.09651.30718.19312Z"/><path class="cls-4" d="M201.80137,210.96486c-9.00095,2.12209-18.27127,3.51947-26.91729,6.63665-15.37077,5.54162-30.8372,11.09657-44.17184,21.07984-4.57339,3.424-9.14305,6.76149-12.98409,11.02916-5.75494,6.39424-5.51449,16.6325,1.29418,21.64176,9.565,7.03727,20.42646,4.61115,25.80044-5.8877,2.65912-5.195-.133-9.21894-6.05627-9.21316-2.24311.00224-4.48593.32324-6.91747.51372,2.40385-3.96178,6.22875-5.84389,9.94281-5.097,4.96348.99825,8.35065,4.09845,9.03965,8.35019a15.8936,15.8936,0,0,1-3.27455,11.99618c-8.55969,11.77139-22.99244,14.47172-36.73861,7.23073-6.55218-3.45141-11.21983-8.51372-11.54577-16.51876-.11888-2.92157-1.25278-4.15094-4.14284-1.97683-1.59681,1.20113-3.62231,1.81768-5.30341,2.92623a204.81672,204.81672,0,0,0-31.2079,25.44578c-2.4967,2.46743-5.90448,4.47774-6.46174,8.49918,16.22964-6.35965,33.15014-7.857,50.41207-7.47808,4.20138.09221,8.13482,1.40568,12.25929,1.55737,20.45713.75277,40.87035-.23448,61.2721-1.60166.29574-.01976.56584-.41983.82978-.628-.13472-.24334-.16987-.4133-.267-.46337-.35392-.18264-.73347-.31476-1.09466-.48444-5.7-2.679-11.5261-5.42182-13.87092-11.79573-2.90852-7.90649.09817-14.57484,5.529-20.2991,7.30607-7.70091,16.50328-12.65516,26.13385-16.683,4.51829-1.88975,7.7355-4.01641,9.18137-9.11162.91919-3.23894-1.82757-4.81767-1.70814-7.22235.21062-4.2383-1.0623-2.81742-3.31352-1.40717-3.00445,1.88211-3.75358,4.86474-4.85589,7.76459-1.24895,3.28574-2.30445,7.09218-6.03864,8.09-5.63653,1.50619-9.14156-1.03638-10.03912-6.89556-.47763-3.11773-1.39757-2.1647-3.04333-.91247-4.0014,3.04435-5.36271,7.1995-5.14808,11.9408.16819,3.71349-1.445,6.2487-4.41107,8.1985-3.98415,2.619-6.44347,2.04088-8.73767-2.00938A10.65074,10.65074,0,0,0,148.484,242.787c-2.39023-.65282-4.80349-1.39086-7.7175-1.95623,11.16351-10.23238,24.4203-15.33114,37.74068-20.0166a91.4213,91.4213,0,0,1,23.82464-5.25465c2.10876-.14889,2.23947-1.79717,2.20255-3.32937C204.48482,210.1761,202.93286,210.69812,201.80137,210.96486Z"/><path class="cls-4" d="M52.139,297.69925c.00354-.02778.01389-.05081.01771-.07841-.0206.00811-.0414.015-.062.02312Z"/><path class="cls-4" d="M373.06751,244.10353c-7.425,1.1451-14.68121.86111-21.72921-2.126-8.34608-3.53719-12.78671-10.17738-15.22617-18.51079-.36771-1.25623-.25518-2.776-2.21187-3.00567-3.14962-.36957-6.26437-1.1023-9.4193-1.33118-1.63308-.1186-4.23355-1.04842-4.78176.90753-.49405,1.76249.87117,3.92933,2.28767,5.46181a30.84584,30.84584,0,0,0,2.91541,2.25943c1.855,1.56875,3.77615,3.08183,5.47319,4.81057,6.78349,6.91048,6.51172,17.398-1.09988,22.3343-4.29424,2.78489-7.25031,6.41568-10.08209,10.38436a9.01647,9.01647,0,0,0-1.27292,1.58982c-.48351.98781-2.0063,2.09114-.456,3.1251a2.21739,2.21739,0,0,0,3.16883-.9467,11.39377,11.39377,0,0,1,1.049-1.256c2.15668.38086,3.92439-.82941,5.87763-1.31693a160.42371,160.42371,0,0,0,37.87392-15.27474c3.52637-1.92061,7.54959-3.30382,10.12853-7.44041C374.38,243.9262,373.72183,244.00256,373.06751,244.10353Z"/><path class="cls-4" d="M67.96779,317.56938c-5.876-.23578-9.68931,4.26843-10.12387,10.0297-.391,5.18435,5.1079,11.66838,9.66385,11.876,5.07741.2315,10.97947-5.735,11.01182-11.132C78.73906,322.55608,73.99879,317.81133,67.96779,317.56938Z"/><path class="cls-4" d="M282.22777,228.44625c-5.46405-5.53136-5.478-5.51626-8.706,1.59905a6.16043,6.16043,0,0,0-.6835,1.4551c-.14115.95042-.243,1.98849,1.1024,2.27052,2.667.55893,4.16689,2.69361,5.97627,4.41386,6.99355,6.64924,8.23,14.4679,3.20276,22.64869-3.56749,5.80547-8.39559,10.61781-13.92257,15.60339,10.26987,1.25865,13.92239-.26581,16.60164-6.40468,2.02149-4.63194,3.96858-9.304,6.19771-13.836,3.23548-6.57781,4.40118-12.57721-1.6618-18.56094C287.47328,234.81122,285.10663,231.36055,282.22777,228.44625Z"/><path class="cls-4" d="M52.09468,297.644l-.61228.43408-.11305-.36008q.384-.01015.76886-.01957Z"/><path d="M133.36782,430.726a34.68141,34.68141,0,0,1,1.43555,3.22266,17.85423,17.85423,0,0,1-1.88965,1.65527q-1.18653.92286-2.915,2.06543a22.25282,22.25282,0,0,1-3.09082,1.83106,5.09953,5.09953,0,0,1-1.91895.57129,4.60727,4.60727,0,0,1-2.57812-.74707,5.80666,5.80666,0,0,1-1.9336-2.29981q-.11718-.23437-.23437-.49805a3.55717,3.55717,0,0,0-.293-.52734q-.87891-.84962-1.69922-1.69922a22.57346,22.57346,0,0,1-1.47949-2.00683q-1.09863-1.59669-2.73926-4.37989-.73242-1.31835-1.582-2.65136t-1.75781-2.71a6.216,6.216,0,0,0-.542,1.64062,32.30309,32.30309,0,0,0-.57128,3.51563,4.79692,4.79692,0,0,1-.23438,1.15722,4.80989,4.80989,0,0,0-.23437,1.18653,3.22848,3.22848,0,0,0,.08789.58593,3.24126,3.24126,0,0,1,.08789.58594,26.87919,26.87919,0,0,1-.32227,3.39844,26.89611,26.89611,0,0,0-.32226,3.39844,2.386,2.386,0,0,1-.293,1.333,1.123,1.123,0,0,1-.9961.42481,5.11164,5.11164,0,0,1-1.17187-.20508,7.197,7.197,0,0,1-.9668.20508.69932.69932,0,0,1-.61523-.46875,3.537,3.537,0,0,1-.23438-1.49414,5.80255,5.80255,0,0,1,.17578-1.12793,5.82467,5.82467,0,0,0,.17578-1.18653,6.1679,6.1679,0,0,0-.10253-.9082,6.148,6.148,0,0,1-.10254-.87891q0-.29149.16113-1.77246.16113-1.478.51269-4.23339.293-2.87111.542-4.51172a17.83767,17.83767,0,0,1,.36621-1.99219,4.82209,4.82209,0,0,1,.26367-.61524,3.09911,3.09911,0,0,0,.26367-.8496l-.52734-1.99219q.26367-1.60986.67383-4.76074.41014-3.148.96679-7.92481.32228-2.8125.498-4.36523t.20508-1.75782a5.90136,5.90136,0,0,1,1.52344-2.40234,6.64951,6.64951,0,0,1,2.60742-1.46484q.20508-.14649.498-.39551a8.15342,8.15342,0,0,1,.73243-.542h.05859q.41016,0,1.084,1.23047a5.03057,5.03057,0,0,1,.70313,1.99218,5.14349,5.14349,0,0,1-.07324.76172,7.64184,7.64184,0,0,1-.27832,1.11328c-.15625.50879-.28321.92774-.38086,1.25977-.09766.333-.15625.55664-.17578.67383q-.55665,1.93359-1.25977,4.84863-.70312,2.91651-1.55273,6.87012c-.03907.21582-.08789.48339-.14649.80566a7.05763,7.05763,0,0,1-.32226,1.12793q-.11719.61524-.23438,1.09863a3.62233,3.62233,0,0,0-.11719.835,1.95214,1.95214,0,0,0,.35157,1.02539,11.78574,11.78574,0,0,0,3.38378-2.87109q2.32911-2.48877,5.99122-7.002a90.55071,90.55071,0,0,0,5.581-7.44141q1.86035-2.87109,1.86035-4.01367a1.86286,1.86286,0,0,0-.542-1.084,1.8719,1.8719,0,0,1-.542-1.11329,1.83626,1.83626,0,0,1,.835-1.52343,6.37281,6.37281,0,0,1,2.56348-.9375,2.6095,2.6095,0,0,0,1.09863-.60059,2.26242,2.26242,0,0,1,1.27441-.57129,9.65185,9.65185,0,0,0,.9668.11719,11.07044,11.07044,0,0,0,1.17187-.64453,3.04111,3.04111,0,0,1,.74707,1.17187,4.62886,4.62886,0,0,1,.21973,1.49414,10.09645,10.09645,0,0,1-.39551,2.959,4.41785,4.41785,0,0,1-1.24511,2.05078c-.15625.15723-.332.32715-.52735.51269a5.0915,5.0915,0,0,0-.55664.62989,17.86978,17.86978,0,0,1-1.55273,2.63672q-.9961,1.43555-2.34375,3.16406-3.04687,3.72071-5.56641,6.5332t-4.57031,4.7168a10.08809,10.08809,0,0,0-1.27442,1.377,1.825,1.825,0,0,0-.4248.9961q.61524,1.17188,1.05469,2.168.8496,2.02149,1.78711,3.95508t1.8457,3.89649a22.21054,22.21054,0,0,0,2.87109,4.42382,3.55013,3.55013,0,0,0,2.40235,1.46485,4.36408,4.36408,0,0,0,1.05468-.41016q.87891-.41016,2.31446-1.14258a4.74951,4.74951,0,0,1,1.3623-1.11328Q133.33852,430.93257,133.36782,430.726Z"/><path d="M137.18813,427.47407a3.92569,3.92569,0,0,1-.10254-.62988c-.00976-.165-.01465-.30762-.01465-.42481a6.27389,6.27389,0,0,1,.27832-1.97754,3.49355,3.49355,0,0,1,.835-1.3916,2.43355,2.43355,0,0,1,.70313-.4248q.58593-.27833,1.52344-.65918a3.56633,3.56633,0,0,0,1.084-.76172,1.60953,1.60953,0,0,0,.43945-1.05469,5.51685,5.51685,0,0,1,.42481-1.12793q.30762-.62988.74707-1.3916.11718-.20361.82031-2.417.70313-2.21191,1.99219-6.48926.35156-1.31836.70312-2.27051.35157-.95068.58594-1.59668a16.95463,16.95463,0,0,1,1.84571-3.92578,15.99823,15.99823,0,0,0,1.084-1.52344v-.17578l-1.11328-1.72851,1.37695-1.582,1.75781-.35157q.52736-.08788.9668-.99609a7.74223,7.74223,0,0,1,1.52344-1.99219,3.83976,3.83976,0,0,0,.80566-.4541q.542-.36621,1.3916-1.04a8.46482,8.46482,0,0,1,1.25977-.86426,1.95373,1.95373,0,0,1,.82031-.27832,2.01457,2.01457,0,0,1,1.36231.38086,1.31,1.31,0,0,1,.4248,1.02539,5.346,5.346,0,0,1-.80566,2.24121,5.35484,5.35484,0,0,0-.80567,2.24122,1.0865,1.0865,0,0,0,.14649.58593.61818.61818,0,0,0,.38086.293l4.21875,2.28516c.23437.09863.44433.46875.62988,1.11328a16.09135,16.09135,0,0,1,.4541,2.666q.20508,1.40625.32227,2.32911a12.467,12.467,0,0,1,.11718,1.50879q-.23437,1.49413-.46875,3.04687.35157,1.96289.76172,4.16016-.20508,2.05077-.46875,4.21875a.7496.7496,0,0,0,.08789.36621.35152.35152,0,0,0,.26368.19043,1.38,1.38,0,0,1,.9082.30761,1.021,1.021,0,0,1,.293.77637,2.21711,2.21711,0,0,1-.19043,1.01074,1.37793,1.37793,0,0,1-.542.57129c-.3125.19532-.55664.36231-.73243.49805a1.46132,1.46132,0,0,0-.35156.35156l.43945,2.168-.61523,5.00977q0,.61523-.10254,1.59668-.10254.98291-.33691,2.2998-.35157.939-.52735,1.56738a3.94811,3.94811,0,0,0-.17578.86426c.11719.3916.22461.81055.32227,1.25977q-.20508.939-.43946,1.88965-.23437.95214-.43945,1.86035a3.97549,3.97549,0,0,1-1.01074,1.80175,2.13118,2.13118,0,0,1-1.47949.57129.73328.73328,0,0,1-.68848-.3955,2.59267,2.59267,0,0,1-.21973-1.21582,6.2468,6.2468,0,0,1,.11719-1.01075,6.24544,6.24544,0,0,0,.11719-1.01074,4.24145,4.24145,0,0,0-.07324-.68848,4.343,4.343,0,0,1-.07325-.71777q0-.99462.20508-3.14941.20508-2.15333.20508-3.23731l-.35156-1.23047q.08789-.67381.14648-1.377v-.43945a5.40264,5.40264,0,0,0-.05859-.82031l.52734-.9668-.43945-3.25195-.26367-.11719a1.91739,1.91739,0,0,0-.61524.16113,6.98851,6.98851,0,0,0-.99609.5127,8.07541,8.07541,0,0,1-1.31836.293,20.45577,20.45577,0,0,1-2.37305.20508q-.64452.293-1.20117.55664a17.72868,17.72868,0,0,0-2.02148.61524q-1.23048.43946-2.8711,1.05469a13.35489,13.35489,0,0,1-1.72851.73242,4.338,4.338,0,0,1-1.31836.26367.91766.91766,0,0,0-.70313.32226,2.33815,2.33815,0,0,0-.46875.90821,7.27981,7.27981,0,0,1-.498,1.53808q-.41016.98292-1.084,2.47559-.11718.38086-.36621,1.18652-.249.80714-.57129,2.00684-.20508.46875-.4834,1.14258t-.62988,1.582a7.62586,7.62586,0,0,1-.08789,1.05469q-.08788.61523-.26367,1.40625-.17578.498-.4834,1.25976t-.74707,1.66992a1.85068,1.85068,0,0,1-.82031.82032,3.01073,3.01073,0,0,1-1.34766.26367,1.16279,1.16279,0,0,1-.95215-.41016,1.9068,1.9068,0,0,1-.33691-1.23047,11.55913,11.55913,0,0,1,.21972-2.10937,22.82782,22.82782,0,0,1,.65918-2.57813q.49806-1.8457.84961-3.00293a8.0111,8.0111,0,0,0,.38086-1.74316,7.19722,7.19722,0,0,0,.32227-.86426q.20508-.62988.498-1.53808.293-.87891.58593-2.02149l-.17578-.26367-1.11328.17578a.752.752,0,0,1-.55664-.33691,1.32464,1.32464,0,0,1-.17578-.71778,2.29678,2.29678,0,0,1,.07324-.55664C137.04653,428.01216,137.11,427.767,137.18813,427.47407Zm12.77344-6.44531a10.81814,10.81814,0,0,0,2.37305-.39551,10.84378,10.84378,0,0,1,2.40234-.39551,9.21323,9.21323,0,0,0,.9668.17578q.8789-.17577,1.72851-.3955t1.72852-.39551a1.0355,1.0355,0,0,0,.52734-.27832.72461.72461,0,0,0,.17578-.5127q-.05859-1.05468-.05859-1.43554a14.12875,14.12875,0,0,1,.08789-1.49415q.08788-.81883.26367-1.69921l-.43945-1.582.14648-1.43554q-.14648-.791-.23437-1.49414-.0293-.32227-.0293-.61524a3.60447,3.60447,0,0,1,.0293-.498c-.0586-.09766-.14649-.25293-.26367-.46875q-.17578-.32227-.38086-.67383-.35157-.58594-.71778-1.12793t-.71777-1.09863a3.59052,3.59052,0,0,0-1.05469-.9961,2.3042,2.3042,0,0,0-1.17187-.32226q-.70312,0-1.43555,1.12793a12.96793,12.96793,0,0,0-1.37695,3.41308,8.00118,8.00118,0,0,1-.57129,1.17188q-.48341.8789-1.36231,2.28515a13.13075,13.13075,0,0,1-.95215,3.31055,47.96873,47.96873,0,0,1-2.24121,4.6582.84631.84631,0,0,0-.19043.41016q-.01464.17578-.01464.41016a.47445.47445,0,0,0,.11718.35156.523.523,0,0,0,.38086.11719c.23438,0,.61524-.01856,1.14258-.0586Q149.61,421.02876,149.96157,421.02876Z"/><path d="M200.59829,391.49751a1.31714,1.31714,0,0,1,1.14258.4834,2.46167,2.46167,0,0,1,.35156,1.45019,32.00945,32.00945,0,0,1-.16114,3.3252,13.875,13.875,0,0,1-.542,2.73925q-.52734,1.52345-1.01074,2.97364t-.95215,2.97363a5.52219,5.52219,0,0,0-.70312.9082q-.0879.73242-.17578,1.43555a1.151,1.151,0,0,1-.27832.542,7.81963,7.81963,0,0,1-.57129.57129c-.07813.23438-.17578.50879-.293.82031-.11719.3125-.25391.68457-.41016,1.11329q-.9082,1.7871-2.44629,4.26269-1.53809,2.47705-3.70605,5.69824-.0293.5874-.0293,1.05469l-1.99219,4.21875q-.99609,2.28516-1.75781,4.37988a27.56117,27.56117,0,0,0-1.14258,3.999q-.20508,1.05468-.33691,1.74316a6.06481,6.06481,0,0,0-.13184.95215,2.46653,2.46653,0,0,0,.42481,1.06933,2.89249,2.89249,0,0,1,.4248.89356q0,.791-2.05078,2.02148a7.60312,7.60312,0,0,1-2.49023,1.17188h-.0586q-.52734-.08788-1.11328-.17578t-1.084-.20508a2.97647,2.97647,0,0,1-1.11328-.46875.91729.91729,0,0,1-.38086-.76172,7.75986,7.75986,0,0,1,.23437-1.377,20.91911,20.91911,0,0,1,.791-2.8125,11.67242,11.67242,0,0,1,1.17187-2.373l.11719-.14648a.63817.63817,0,0,1-.16113-.33692,1.82914,1.82914,0,0,0-.16114-.4541q.17578-.64307.49805-1.55273.32226-.90675.84961-2.10938a8.27182,8.27182,0,0,0,.70313-1.49414,15.67379,15.67379,0,0,0,.61523-2.13867,10.88931,10.88931,0,0,1-2.03613-2.124,7.1615,7.1615,0,0,1-1.12793-2.3584q-.26367-.61524-.71778-1.53809t-.98144-2.24121l-2.60742-8.96484q-.1172-1.05469-.30762-2.50489t-.60059-3.32519l.293-.791-.58594-.791a7.44171,7.44171,0,0,0-.05859-.77637c-.03906-.34082-.08789-.75684-.14648-1.24512a9.13387,9.13387,0,0,1-.13184-1.21582c-.00977-.34082-.01465-.62988-.01465-.86426a4.324,4.324,0,0,1,.38086-2.02148,1.68968,1.68968,0,0,1,1.17188-.87891c.15625,0,.33691-.0039.542-.01464q.30762-.01466.65918-.01465a10.22341,10.22341,0,0,0,2.54883-1.11328,2.38058,2.38058,0,0,1,1.59668.51269,2.55487,2.55487,0,0,1,.80566,1.4502,11.853,11.853,0,0,1,.13184,1.3916q.04394.895.04394,2.124,0,.6753-.13183,1.9336-.13185,1.25976-.13184,1.875a2.18945,2.18945,0,0,0,.05859.46875q.0586.26367.11719.70312.05859,1.17188.27832,2.8418t.57129,3.80859q.20508,1.25976.62988,3.14941t.98145,4.37989a7.54739,7.54739,0,0,1,.58594.82031,10.87851,10.87851,0,0,1,.58593,1.084l.23438.14649q.23438,0,1.05469-1.61133.82031-1.60986,2.25586-4.80469.20506-.41014.498-1.09863.293-.687.67383-1.59668a3.798,3.798,0,0,0,.38086-.55664c.13672-.23437.30273-.5166.49805-.84961q.17577-.61524.52734-1.53809t.87891-2.18261q.43946-.81885,1.02539-1.99219.58593-1.1704,1.28906-2.8125a18.86317,18.86317,0,0,1,1.31836-2.2998q1.28905-2.09326,3.7207-5.99122a2.671,2.671,0,0,1,.58594-.70312A.96669.96669,0,0,1,200.59829,391.49751Z"/><path d="M201.72329,427.47407a3.92343,3.92343,0,0,1-.10254-.62988c-.00977-.165-.01465-.30762-.01465-.42481a6.2736,6.2736,0,0,1,.27832-1.97754,3.49355,3.49355,0,0,1,.835-1.3916,2.43355,2.43355,0,0,1,.70313-.4248q.58593-.27833,1.52343-.65918a3.56638,3.56638,0,0,0,1.084-.76172,1.60953,1.60953,0,0,0,.43945-1.05469,5.51685,5.51685,0,0,1,.42481-1.12793q.3076-.62988.74707-1.3916.11718-.20361.82031-2.417.70313-2.21191,1.99219-6.48926.35156-1.31836.70312-2.27051.35157-.95068.58594-1.59668a16.95516,16.95516,0,0,1,1.8457-3.92578,15.99866,15.99866,0,0,0,1.084-1.52344v-.17578l-1.11329-1.72851,1.377-1.582,1.75781-.35157q.52734-.08788.9668-.99609a7.74239,7.74239,0,0,1,1.52343-1.99219,3.83951,3.83951,0,0,0,.80567-.4541q.542-.36621,1.3916-1.04a8.46379,8.46379,0,0,1,1.25977-.86426,1.95373,1.95373,0,0,1,.82031-.27832,2.01452,2.01452,0,0,1,1.3623.38086,1.31,1.31,0,0,1,.42481,1.02539,5.346,5.346,0,0,1-.80567,2.24121,5.35478,5.35478,0,0,0-.80566,2.24122,1.08659,1.08659,0,0,0,.14648.58593.6182.6182,0,0,0,.38086.293l4.21875,2.28516c.23438.09863.44434.46875.62989,1.11328a16.09241,16.09241,0,0,1,.4541,2.666q.20508,1.40625.32226,2.32911a12.46524,12.46524,0,0,1,.11719,1.50879q-.23437,1.49413-.46875,3.04687.35157,1.96289.76172,4.16016-.20508,2.05077-.46875,4.21875a.7496.7496,0,0,0,.08789.36621.35148.35148,0,0,0,.26367.19043,1.38006,1.38006,0,0,1,.90821.30761,1.021,1.021,0,0,1,.293.77637,2.217,2.217,0,0,1-.19043,1.01074,1.3778,1.3778,0,0,1-.542.57129c-.3125.19532-.55664.36231-.73242.49805a1.46113,1.46113,0,0,0-.35156.35156l.43945,2.168-.61523,5.00977q0,.61523-.10254,1.59668-.10254.98291-.33692,2.2998-.35156.939-.52734,1.56738a3.94749,3.94749,0,0,0-.17578.86426c.11719.3916.22461.81055.32226,1.25977q-.20506.939-.43945,1.88965-.23437.95214-.43945,1.86035a3.97558,3.97558,0,0,1-1.01074,1.80175,2.1312,2.1312,0,0,1-1.4795.57129.73326.73326,0,0,1-.68847-.3955,2.59255,2.59255,0,0,1-.21973-1.21582,6.24565,6.24565,0,0,1,.11719-1.01075,6.24659,6.24659,0,0,0,.11719-1.01074,4.24051,4.24051,0,0,0-.07325-.68848,4.34283,4.34283,0,0,1-.07324-.71777q0-.99462.20508-3.14941.20508-2.15333.20508-3.23731l-.35157-1.23047q.0879-.67381.14649-1.377v-.43945a5.40264,5.40264,0,0,0-.05859-.82031l.52734-.9668-.43945-3.25195-.26368-.11719a1.91741,1.91741,0,0,0-.61523.16113,6.988,6.988,0,0,0-.99609.5127,8.07541,8.07541,0,0,1-1.31836.293,20.456,20.456,0,0,1-2.37305.20508q-.64453.293-1.20117.55664a17.72875,17.72875,0,0,0-2.02149.61524q-1.23047.43946-2.87109,1.05469a13.35439,13.35439,0,0,1-1.72852.73242,4.33786,4.33786,0,0,1-1.31836.26367.91764.91764,0,0,0-.70312.32226,2.33815,2.33815,0,0,0-.46875.90821,7.27937,7.27937,0,0,1-.49805,1.53808q-.41014.98292-1.084,2.47559-.11719.38086-.36621,1.18652-.249.80714-.57129,2.00684-.20508.46875-.4834,1.14258t-.62988,1.582a7.62586,7.62586,0,0,1-.08789,1.05469q-.0879.61523-.26368,1.40625-.17577.498-.48339,1.25976t-.74707,1.66992a1.85071,1.85071,0,0,1-.82032.82032,3.01068,3.01068,0,0,1-1.34765.26367,1.16279,1.16279,0,0,1-.95215-.41016,1.9068,1.9068,0,0,1-.33692-1.23047,11.55922,11.55922,0,0,1,.21973-2.10937,22.82568,22.82568,0,0,1,.65918-2.57813q.498-1.8457.84961-3.00293a8.0111,8.0111,0,0,0,.38086-1.74316,7.199,7.199,0,0,0,.32227-.86426q.20506-.62988.498-1.53808.293-.87891.58594-2.02149l-.17578-.26367-1.11328.17578a.752.752,0,0,1-.55664-.33691,1.32464,1.32464,0,0,1-.17578-.71778,2.29678,2.29678,0,0,1,.07324-.55664C201.58169,428.01216,201.64516,427.767,201.72329,427.47407Zm12.77343-6.44531a10.81805,10.81805,0,0,0,2.373-.39551,10.84394,10.84394,0,0,1,2.40235-.39551,9.21305,9.21305,0,0,0,.96679.17578q.87891-.17577,1.72852-.3955t1.72851-.39551a1.03549,1.03549,0,0,0,.52735-.27832.72465.72465,0,0,0,.17578-.5127q-.05859-1.05468-.0586-1.43554a14.12627,14.12627,0,0,1,.0879-1.49415q.08789-.81883.26367-1.69921l-.43946-1.582.14649-1.43554q-.14649-.791-.23438-1.49414-.02929-.32227-.02929-.61524a3.60464,3.60464,0,0,1,.02929-.498c-.05859-.09766-.14648-.25293-.26367-.46875q-.17578-.32227-.38086-.67383-.35156-.58594-.71777-1.12793t-.71777-1.09863a3.59076,3.59076,0,0,0-1.05469-.9961,2.30424,2.30424,0,0,0-1.17188-.32226q-.70312,0-1.43554,1.12793a12.96789,12.96789,0,0,0-1.377,3.41308,7.999,7.999,0,0,1-.57129,1.17188q-.48339.8789-1.3623,2.28515a13.13118,13.13118,0,0,1-.95215,3.31055,47.96873,47.96873,0,0,1-2.24121,4.6582.84622.84622,0,0,0-.19043.41016q-.01466.17578-.01465.41016a.47441.47441,0,0,0,.11719.35156.523.523,0,0,0,.38086.11719c.23437,0,.61523-.01856,1.14258-.0586Q214.14516,421.02876,214.49672,421.02876Z"/><path d="M267.79946,430.726a34.68141,34.68141,0,0,1,1.43555,3.22266,17.85423,17.85423,0,0,1-1.88965,1.65527q-1.18653.92286-2.915,2.06543a22.25282,22.25282,0,0,1-3.09082,1.83106,5.09953,5.09953,0,0,1-1.91895.57129,4.60727,4.60727,0,0,1-2.57812-.74707,5.80666,5.80666,0,0,1-1.9336-2.29981q-.11718-.23437-.23437-.49805a3.55717,3.55717,0,0,0-.293-.52734q-.87891-.84962-1.69922-1.69922a22.57558,22.57558,0,0,1-1.47949-2.00683q-1.09863-1.59669-2.73926-4.37989-.73242-1.31835-1.582-2.65136t-1.75781-2.71a6.21574,6.21574,0,0,0-.542,1.64062,32.30022,32.30022,0,0,0-.57129,3.51563,4.79692,4.79692,0,0,1-.23438,1.15722,4.80989,4.80989,0,0,0-.23437,1.18653,3.22848,3.22848,0,0,0,.08789.58593,3.24126,3.24126,0,0,1,.08789.58594,26.87919,26.87919,0,0,1-.32227,3.39844,26.89611,26.89611,0,0,0-.32226,3.39844,2.386,2.386,0,0,1-.293,1.333,1.123,1.123,0,0,1-.9961.42481,5.11164,5.11164,0,0,1-1.17187-.20508,7.197,7.197,0,0,1-.9668.20508.69932.69932,0,0,1-.61523-.46875,3.537,3.537,0,0,1-.23438-1.49414,5.80255,5.80255,0,0,1,.17578-1.12793,5.82484,5.82484,0,0,0,.17579-1.18653,6.16685,6.16685,0,0,0-.10254-.9082,6.148,6.148,0,0,1-.10254-.87891q0-.29149.16113-1.77246.16113-1.478.5127-4.23339.293-2.87111.542-4.51172a17.83767,17.83767,0,0,1,.36621-1.99219,4.82209,4.82209,0,0,1,.26367-.61524,3.09911,3.09911,0,0,0,.26367-.8496l-.52734-1.99219q.26367-1.60986.67383-4.76074.41015-3.148.96679-7.92481.32227-2.8125.49805-4.36523t.20508-1.75782a5.90136,5.90136,0,0,1,1.52344-2.40234,6.64951,6.64951,0,0,1,2.60742-1.46484q.20508-.14649.498-.39551a8.15342,8.15342,0,0,1,.73243-.542h.05859q.41016,0,1.084,1.23047a5.03057,5.03057,0,0,1,.70313,1.99218,5.14212,5.14212,0,0,1-.07324.76172,7.64184,7.64184,0,0,1-.27832,1.11328c-.15625.50879-.28321.92774-.38086,1.25977-.09766.333-.15625.55664-.17578.67383q-.55665,1.93359-1.25977,4.84863-.70312,2.91651-1.55273,6.87012c-.03907.21582-.08789.48339-.14649.80566a7.05763,7.05763,0,0,1-.32226,1.12793q-.1172.61524-.23438,1.09863a3.62233,3.62233,0,0,0-.11719.835,1.95214,1.95214,0,0,0,.35157,1.02539,11.78587,11.78587,0,0,0,3.38379-2.87109q2.32909-2.48877,5.99121-7.002a90.54839,90.54839,0,0,0,5.58105-7.44141q1.86036-2.87109,1.86035-4.01367a1.86286,1.86286,0,0,0-.542-1.084,1.8719,1.8719,0,0,1-.542-1.11329,1.83626,1.83626,0,0,1,.835-1.52343,6.37281,6.37281,0,0,1,2.56348-.9375,2.6095,2.6095,0,0,0,1.09863-.60059,2.26244,2.26244,0,0,1,1.27441-.57129,9.65219,9.65219,0,0,0,.9668.11719,11.07044,11.07044,0,0,0,1.17187-.64453,3.04111,3.04111,0,0,1,.74707,1.17187,4.62886,4.62886,0,0,1,.21973,1.49414,10.09611,10.09611,0,0,1-.39551,2.959,4.41785,4.41785,0,0,1-1.24511,2.05078c-.15625.15723-.332.32715-.52735.51269a5.0915,5.0915,0,0,0-.55664.62989,17.86978,17.86978,0,0,1-1.55273,2.63672q-.99609,1.43555-2.34375,3.16406-3.04687,3.72071-5.56641,6.5332t-4.57031,4.7168a10.08809,10.08809,0,0,0-1.27442,1.377,1.825,1.825,0,0,0-.4248.9961q.61524,1.17188,1.05469,2.168.8496,2.02149,1.78711,3.95508t1.8457,3.89649a22.21054,22.21054,0,0,0,2.87109,4.42382,3.55013,3.55013,0,0,0,2.40235,1.46485,4.36407,4.36407,0,0,0,1.05469-.41016q.8789-.41016,2.31445-1.14258a4.74951,4.74951,0,0,1,1.3623-1.11328Q267.77016,430.93257,267.79946,430.726Z"/><path d="M377.988,424.00239a3.94278,3.94278,0,0,1-.10254-.62988q-.01465-.249-.01465-.42481a6.2736,6.2736,0,0,1,.27832-1.97754,3.49355,3.49355,0,0,1,.835-1.3916,2.411,2.411,0,0,1,.70313-.4248q.58593-.27832,1.52344-.65918a3.56645,3.56645,0,0,0,1.084-.76172,1.60953,1.60953,0,0,0,.43945-1.05469,5.49578,5.49578,0,0,1,.42481-1.12793q.30762-.62988.74707-1.3916.11718-.20508.82031-2.417t1.99219-6.48926q.35156-1.31837.70312-2.27051t.58594-1.59668a16.934,16.934,0,0,1,1.8457-3.92578,16.125,16.125,0,0,0,1.084-1.52344v-.17578l-1.11328-1.72851,1.377-1.582,1.75781-.35157q.52734-.08789.9668-.99609a7.72577,7.72577,0,0,1,1.52344-1.99219,3.88653,3.88653,0,0,0,.80566-.4541q.542-.36621,1.3916-1.04a8.38955,8.38955,0,0,1,1.25977-.86426,1.95373,1.95373,0,0,1,.82031-.27832,2.00936,2.00936,0,0,1,1.3623.38086,1.30859,1.30859,0,0,1,.42481,1.02539,5.35485,5.35485,0,0,1-.80566,2.24121,5.35484,5.35484,0,0,0-.80567,2.24122,1.0865,1.0865,0,0,0,.14649.58593.62166.62166,0,0,0,.38086.293l4.21875,2.28516q.35155.14647.62988,1.11328a16.07361,16.07361,0,0,1,.4541,2.666q.20508,1.40625.32227,2.32911a12.467,12.467,0,0,1,.11718,1.50879q-.23437,1.49414-.46875,3.04687.35157,1.96288.76172,4.16016-.20508,2.05077-.46875,4.21875a.75226.75226,0,0,0,.08789.36621.35385.35385,0,0,0,.26367.19043,1.38006,1.38006,0,0,1,.90821.30761,1.01958,1.01958,0,0,1,.293.77637,2.21711,2.21711,0,0,1-.19043,1.01074,1.38964,1.38964,0,0,1-.542.57129q-.46875.293-.73242.498a1.46113,1.46113,0,0,0-.35156.35156l.43945,2.168-.61523,5.00977q0,.61523-.10254,1.59668t-.33691,2.2998q-.35157.9375-.52735,1.56738a3.93692,3.93692,0,0,0-.17578.86426q.17578.58594.32227,1.25977-.20508.9375-.43946,1.88965-.23437.95067-.43945,1.86035a3.97568,3.97568,0,0,1-1.01074,1.80176,2.13121,2.13121,0,0,1-1.47949.57128.73328.73328,0,0,1-.68848-.3955,2.59526,2.59526,0,0,1-.21973-1.21582,6.24565,6.24565,0,0,1,.11719-1.01075,6.24659,6.24659,0,0,0,.11719-1.01074,4.22964,4.22964,0,0,0-.07325-.68847,4.35406,4.35406,0,0,1-.07324-.71778q0-.99609.20508-3.14941t.20508-3.23731l-.35156-1.23047q.08788-.67381.14648-1.37695v-.43945a5.40264,5.40264,0,0,0-.05859-.82031l.52734-.9668-.43945-3.252-.26367-.11719a1.89132,1.89132,0,0,0-.61524.16113,6.988,6.988,0,0,0-.99609.5127,8.18192,8.18192,0,0,1-1.31836.293,20.67657,20.67657,0,0,1-2.373.20508q-.64453.293-1.20117.55664a17.72868,17.72868,0,0,0-2.02148.61524q-1.23048.43946-2.8711,1.05469a13.35489,13.35489,0,0,1-1.72851.73242,4.338,4.338,0,0,1-1.31836.26367.91764.91764,0,0,0-.70313.32226,2.33113,2.33113,0,0,0-.46875.90821,7.27937,7.27937,0,0,1-.49805,1.53808q-.41014.98145-1.084,2.47559-.11718.38087-.36621,1.18652t-.57129,2.00684q-.20508.46875-.4834,1.14258t-.62988,1.582a7.62586,7.62586,0,0,1-.08789,1.05469q-.0879.61523-.26367,1.40625c-.11719.332-.27832.751-.4834,1.25976q-.30762.76171-.74707,1.66992a1.85562,1.85562,0,0,1-.82031.82032,3.01076,3.01076,0,0,1-1.34766.26367,1.16279,1.16279,0,0,1-.95215-.41016,1.91048,1.91048,0,0,1-.33691-1.23047,11.54215,11.54215,0,0,1,.21972-2.10937,22.82568,22.82568,0,0,1,.65918-2.57813q.498-1.84571.84961-3.00293a8.02289,8.02289,0,0,0,.38086-1.74316,7.26576,7.26576,0,0,0,.32227-.86426q.20508-.62988.498-1.53808.293-.87891.58594-2.02149l-.17578-.26367-1.11328.17578a.75491.75491,0,0,1-.55664-.33691,1.32464,1.32464,0,0,1-.17578-.71778,2.29678,2.29678,0,0,1,.07324-.55664Q377.87084,424.44184,377.988,424.00239Zm12.77344-6.44531a10.818,10.818,0,0,0,2.373-.39551,10.84394,10.84394,0,0,1,2.40235-.39551,9.21305,9.21305,0,0,0,.96679.17578q.87891-.17577,1.72852-.3955t1.72852-.39551a1.04286,1.04286,0,0,0,.52734-.27832.72623.72623,0,0,0,.17578-.5127q-.05859-1.05468-.05859-1.43554a14.12608,14.12608,0,0,1,.08789-1.49415q.08788-.82031.26367-1.69921l-.43945-1.582.14648-1.43554q-.14649-.791-.23437-1.49414-.02931-.32227-.0293-.61524a3.593,3.593,0,0,1,.0293-.498q-.0879-.14649-.26368-.46875t-.38086-.67383q-.35156-.58594-.71777-1.12793t-.71777-1.09863a3.5779,3.5779,0,0,0-1.05469-.9961,2.30421,2.30421,0,0,0-1.17188-.32226q-.70312,0-1.43554,1.12793a12.96824,12.96824,0,0,0-1.377,3.41308,7.99963,7.99963,0,0,1-.57128,1.17188q-.48341.87889-1.36231,2.28515a13.13118,13.13118,0,0,1-.95215,3.31055,48.18828,48.18828,0,0,1-2.24121,4.6582.84239.84239,0,0,0-.19043.41016q-.01464.17578-.01465.41016a.4775.4775,0,0,0,.11719.35156.523.523,0,0,0,.38086.11719q.35157,0,1.14258-.0586T390.76146,417.55708Z"/><path d="M446.613,427.25434q.76171,1.72853,1.34766,3.22266a7.15872,7.15872,0,0,1-1.875,1.28906,15.8715,15.8715,0,0,1-2.69532,1.02539q-.43945.11719-1.01074.293t-1.333.35156q-.99609.05861-2.43164.20508t-3.36914.38086a43.10058,43.10058,0,0,1-4.84863,3.36914,14.1435,14.1435,0,0,1-3.58887,1.582l-.52734.46875a13.38945,13.38945,0,0,1-2.88574.86426q-1.71387.33544-4.02832.57129a2.21845,2.21845,0,0,1-.84961-.51269,9.79568,9.79568,0,0,1-1.02539-1.12793q.35155-.41163.8789-1.0254.52734-.61523,1.17188-1.43554a4.36356,4.36356,0,0,1,1.24511-1.25977,4.98848,4.98848,0,0,1,1.86036-.67383q1.14256-.26367,2.54882-.70312a6.01576,6.01576,0,0,1,.86426-.58594q.5127-.293,1.15723-.70312a10.317,10.317,0,0,0,1.66992-1.11328q.87891-.70312,1.93359-1.69922,1.40625-1.377,2.25586-2.21192t1.02539-1.04a5.4351,5.4351,0,0,1,.58594-.89355,4.47719,4.47719,0,0,1,.791-.74707q.46875-.84962,1.21582-2.13867t1.77246-2.959a5.87761,5.87761,0,0,0,.43945-.51269q.26367-.33692.61524-.71778a5.26,5.26,0,0,0,1.01074-2.47558,22.26575,22.26575,0,0,0,.30761-3.999,7.96305,7.96305,0,0,0-.82031-3.36914,16.04524,16.04524,0,0,0-2.54883-3.7207,22.579,22.579,0,0,0-3.06152-2.915,19.32925,19.32925,0,0,0-3.2666-2.09473q-1.25976-.61523-2.373-1.23046t-2.02148-1.11329q-.498,1.75782-1.24512,4.84864t-1.71387,7.51465q-1.05468,5.00976-1.582,8.05664a29.88528,29.88528,0,0,0-.52734,4.10156q-.20508.87891-.35156,1.75781l-1.40625,6.94336a25.73554,25.73554,0,0,1-2.10938,3.53027q-.87891,1.15724-1.377,1.15723-.23437,0-.43946-.39551a6.80378,6.80378,0,0,1-.43945-1.27441l.43945-1.99219a2.8185,2.8185,0,0,1-.20507-.61523q.20508-2.28516.38086-4.61426t.38086-4.67285q.17577-2.57812.52734-4.86328t.76172-4.21875l-.41016-1.81641a11.99288,11.99288,0,0,0,.43945-1.64062,20.84093,20.84093,0,0,0,.32227-2.25586q.14649-1.61133.249-2.60743a6.75243,6.75243,0,0,1,.249-1.40625q.14647-.43944.30761-1.14257t.36622-1.69922a5.62964,5.62964,0,0,1,1.23046-1.49414,9.80014,9.80014,0,0,0,1.43555-1.66993,2.92786,2.92786,0,0,0,1.084-.293.58676.58676,0,0,0,.35156-.498q0-.26367-.39551-.43945a4.31033,4.31033,0,0,0-1.21582-.26368,5.382,5.382,0,0,1-.89356-.08789,4.38565,4.38565,0,0,1-1.04-.32226l-2.8711-1.40625a5.65868,5.65868,0,0,1-1.3916-.835,1.18324,1.18324,0,0,1-.4834-.86426q.20508-.70312.35156-1.40625-.23437-.70312-.3955-1.17188a2.41505,2.41505,0,0,1-.16114-.70312.71062.71062,0,0,1,.16114-.49805.54888.54888,0,0,1,.4248-.17578q.99609.17579,1.72852.32227l.70312-.23438q.35157-.11718.70313-.26367a7.9758,7.9758,0,0,1,1.52343.13184,8.8104,8.8104,0,0,1,1.0254.249q.46875.26367.99609.542t1.02539.4834q.43945-.05859,1.14258-.17578a.83975.83975,0,0,1,.38086.08789,5.73314,5.73314,0,0,0,1.01074.498,9.8582,9.8582,0,0,0,1.3623.41015q.84961.14649,1.4502.293a4.65034,4.65034,0,0,1,.95215.32227q3.72071,1.93359,6.51855,3.64746a32.84278,32.84278,0,0,1,4.61426,3.32519,16.47854,16.47854,0,0,1,4.2627,5.34668,13.626,13.626,0,0,1,1.3623,5.93262,22.46216,22.46216,0,0,1-2.915,10.44434,54.01692,54.01692,0,0,1-8.68652,11.61621,9.13323,9.13323,0,0,1,1.30371-.46875q.80566-.23437,1.86035-.58594,2.22657-.498,4.57031-1.05469a17.012,17.012,0,0,0,2.50489-.92285A5.60772,5.60772,0,0,0,446.613,427.25434Z"/><path d="M474.60325,403.49458q-.14648-.61524-.293-1.05469.17579-1.02538.38086-1.99219t.35157-1.99218a9.25407,9.25407,0,0,1,.86425-2.43165,2.43856,2.43856,0,0,1,1.09864-1.14257l2.25586-.9668q.38085-.14649,1.084-.35156a.60581.60581,0,0,1,.58594.35156,2.36059,2.36059,0,0,1,.17578,1.02539q0,.23438-.17578,1.40625t-.498,3.28125a9.84785,9.84785,0,0,0-.13183.99609,7.86952,7.86952,0,0,1-.16114,1.05469,1.89042,1.89042,0,0,1-.249.835q-.249.48341-.62988,1.09864a1.08919,1.08919,0,0,1,.02929.26367,11.90063,11.90063,0,0,1-.76172,3.13476q-.9375,2.72462-2.92968,7.32422-1.64062,3.8379-2.90039,6.72363t-2.22657,4.76075q-.498.96679-1.12793,2.10937t-1.30371,2.373q.32227.73242.61524,1.34765a1.72648,1.72648,0,0,1-.14649.70313q-.498.55664-1.23047,1.43555t-1.72851,1.96289q-.67383.32226-1.43555.70312-.52734.70313-.8789,1.23047a7.33789,7.33789,0,0,1-1.24512.57129,3.39175,3.39175,0,0,1-1.06934.19043,2.21414,2.21414,0,0,1-1.64062-.835,2.541,2.541,0,0,1-.76172-1.71387,2.40977,2.40977,0,0,1,.80566-1.47949,5.516,5.516,0,0,0,.92285-1.15723l-.11718-.35156-.35157-.46875a8.1631,8.1631,0,0,0-.36621-1.59668,10.31037,10.31037,0,0,0-.60058-1.3916,11.79383,11.79383,0,0,1-1.12793-2.57813q-.48341-1.52343-.92285-3.48632-.17578-.9082-.26368-1.46485a6.05158,6.05158,0,0,1-.08789-.73242,4.26257,4.26257,0,0,1-.32226-.68848q-.17579-.45409-.38086-1.06933-.17579-1.14258-.43945-2.90039t-.52735-4.13086a3.14484,3.14484,0,0,0-.08789-.65918q-.08789-.39551-.26367-.95215a3.69975,3.69975,0,0,1-.293-.9082,4.648,4.648,0,0,1-.05859-.70313q.02929-1.02539.02929-1.99219a4.42639,4.42639,0,0,1-.14648-.84961v-.08789l.293-1.34765a4.58734,4.58734,0,0,1-.58594-1.20117,5.3,5.3,0,0,1-.23437-1.66993,2.07183,2.07183,0,0,1,.10253-.65918,4.58,4.58,0,0,1,.249-.60058,8.86358,8.86358,0,0,1-.27832-1.14258,7.13114,7.13114,0,0,1-.10254-1.23047,3.686,3.686,0,0,1-.498-1.05469,1.43948,1.43948,0,0,1-.11719-.52734.94615.94615,0,0,1,.0586-.35156l.20508-1.40625q-.14649-.52734-.26368-.87891.41016-2.10937.68848-3.38379a12.35735,12.35735,0,0,1,.42481-1.626,4.86151,4.86151,0,0,1,1.49414-1.97754,5.74547,5.74547,0,0,1,2.40234-1.04,10.1257,10.1257,0,0,1,.86426-.55664,1.41866,1.41866,0,0,1,.68847-.20508.97577.97577,0,0,1,.71778.36621,2.67,2.67,0,0,1,.542,1.06934,6.25643,6.25643,0,0,1,.23438,1.14257v1.02539q-.14649,1.31837-.27833,3.00293t-.21972,3.76465a5.23118,5.23118,0,0,1-.30762.77637,2.23511,2.23511,0,0,0-.249.86426,4.24077,4.24077,0,0,0,.249,1.12793,4.24028,4.24028,0,0,1,.249,1.12793,7.05746,7.05746,0,0,1-.07324.76172q-.07324.55663-.21972,2.13867.14648.82031.35156,1.69922a12.41885,12.41885,0,0,1-.10254,1.25976,12.47226,12.47226,0,0,0-.10254,1.31836.67381.67381,0,0,0,.07324.35156,5.77544,5.77544,0,0,1,.27832.9668q.0293.791.16114,1.78711t.30761,2.37305q.17579,1.20117.43946,2.98828t.498,4.13086l.0293,1.17187a1.489,1.489,0,0,0,.14648.57129,2.8912,2.8912,0,0,0,.43946.68848q.20508.96679.4541,2.05078t.4834,2.25586a1.15564,1.15564,0,0,0,.23437.58594.52693.52693,0,0,0,.41016.20507,7.54082,7.54082,0,0,0,1.23047-1.582,9.541,9.541,0,0,0,.80566-1.42089q.5127-1.04,1.21582-2.79786a10.513,10.513,0,0,1,.52735-1.084q.35155-.64453.82031-1.43555a23.14049,23.14049,0,0,0,1.25976-2.56347q.82032-1.86036,1.96289-4.93653.96681-2.51953,1.61133-4.27734t.9375-2.72461Z"/><path d="M512.8181,427.25434l1.31836,3.22266q-.38086.35156-.92286.76172a14.39772,14.39772,0,0,1-1.27441.84961q-.76172.26367-1.78711.71777t-2.37305,1.04a17.69225,17.69225,0,0,1-1.66992.95215,2.58516,2.58516,0,0,1-.9082.30762,6.67975,6.67975,0,0,0-1.65527.3955q-1.21582.39552-3.17871,1.15723-1.0547.37939-2.24122.791-1.18652.41015-2.44628.73242l-2.168-.46875-1.34766.58594q-.67383,0-1.34766-.01465c-.44921-.01075-.88867-.03418-1.31836-.07325a3.94264,3.94264,0,0,1-1.53808-.27832.7803.7803,0,0,1-.5127-.71777l.23438-1.31836-.23438-.26367a2.83164,2.83164,0,0,1-1.582-.30762q-.41016-.30762-.41015-1.47949,0-.52734.05859-1.75781t.14648-3.19336a2.55541,2.55541,0,0,1,.23438-.73242,2.4283,2.4283,0,0,0,.23437-.82032,2.548,2.548,0,0,1-.21972-.55664,1.825,1.825,0,0,1-.04395-.38086q.0879-1.37694.30762-3.38378t.57129-4.73145a29.41846,29.41846,0,0,0,.70312-3.7207q-.05859-1.55274-.11718-3.16407,1.28906-5.85937,2.666-11.748a5.98446,5.98446,0,0,1,.791-2.00684,12.645,12.645,0,0,1,1.37695-1.83105,2.21405,2.21405,0,0,0,.46875-.38086q.17578-.32227.4541-.791t.65918-1.084q.20508-.14649.68848-.42481t1.27441-.77636q.35157-.26369.82031-.65918t1.05469-.92286a22.63143,22.63143,0,0,0,2.49024-1.68457,5.8049,5.8049,0,0,1,2.84179-1.12793q.82032-.02929,1.626-.07324t1.53809-.13183a8.43722,8.43722,0,0,1,1.23046-.17579,6.02284,6.02284,0,0,0,.61524-.13183,1.86348,1.86348,0,0,1,.498-.07324,3.86364,3.86364,0,0,1,.57128.05859q.36622.05859,1.01075.14648.46875.02931.82031.0293t.67383-.0293a4.30891,4.30891,0,0,1,2.08008,1.24512,2.89517,2.89517,0,0,1,.67382,1.919,10.03612,10.03612,0,0,1-.48339,3.60351,1.58591,1.58591,0,0,1-1.4795,1.17188,2.957,2.957,0,0,1-1.77246-.791q-.98144-.791-5.31738-.791-1.78712.35156-3.54492.70312a1.34811,1.34811,0,0,1-.39551.43945,1.71041,1.71041,0,0,1-.39551.20508l-1.23047-.46875a3.407,3.407,0,0,0-1.28906,1.17188,14.39494,14.39494,0,0,0-1.46484,2.60742,3.12332,3.12332,0,0,0-.26367.87891,7.57042,7.57042,0,0,0-.0879,1.23046q-.64452,2.51954-1.25976,4.89258-.61524,2.51953-.98145,3.82325t-.4248,1.56738q-.11719.35156-.19043.67383a2.89983,2.89983,0,0,0-.07324.64453,1.1773,1.1773,0,0,0,.17578.68847.60291.60291,0,0,0,.52734.249q.32227,0,1.53809-1.15723a5.2256,5.2256,0,0,1,1.80176-1.30371q.76172-.20508,1.50878-.4541t1.56739-.60059q.32226-.08788,1.66992-.26367t3.7793-.43945l.96679.293,1.875-.35157.9961.43946a4.066,4.066,0,0,1,.64453.86425,8.039,8.039,0,0,1,.52734,1.12793,8.64542,8.64542,0,0,1-.4541,3.19336,1.47221,1.47221,0,0,1-1.3623,1.084l-1.9336-.76172q-2.40234.23438-4.73144.46875t-4.76075.43945a9.98522,9.98522,0,0,0-4.541,1.91895,4.934,4.934,0,0,0-1.75781,3.53027,10.8969,10.8969,0,0,1-.23438,1.3916q-.20508.95216-.49805,2.3584l.23438,1.05469q-.293,1.52343-.46875,2.85644a18.45657,18.45657,0,0,0-.17578,2.3877.81087.81087,0,0,0,.11719.498q.05859.11718.14648.11718a.22483.22483,0,0,0,.08789-.02929q1.66992-.11719,2.69531-.20508.73242-.02929,1.14258-.0293h.293q.90821.05859,1.875.14649l2.19727-.17579a15.50593,15.50593,0,0,0,1.53808-.57128,5.718,5.718,0,0,1,2.124-.4834,9.96909,9.96909,0,0,0,2.06542-.21973,13.6728,13.6728,0,0,0,1.97754-.57129q.96681-.35156,1.88965-.71777t1.88965-.71778a4.63261,4.63261,0,0,0,.92285-.38085Q512.02708,427.69379,512.8181,427.25434Z"/><path d="M523.904,398.80708l-.58593-2.28516q.23438-.70312.43945-1.4209t.38086-1.4209a1.47163,1.47163,0,0,1,.71777-.76171,2.9921,2.9921,0,0,1,1.36231-.26368,4.8136,4.8136,0,0,0,.96679-.14648,4.79957,4.79957,0,0,1,.9375-.14648,1.47025,1.47025,0,0,1,.82032.498,2.303,2.303,0,0,0,.76172.55664,4.55008,4.55008,0,0,0,.60058-.58593q.36621-.41016.89356-1.11329a6.43524,6.43524,0,0,1,.89355-.9375,2.25917,2.25917,0,0,1,.89356-.46875q.58593.26369.99609.43946a.84449.84449,0,0,1,.32227.32226,1.13773,1.13773,0,0,1,.08789.498,3.38852,3.38852,0,0,1-.17579.74707q-.17577.57129-.52734,1.56738-.38087,1.05469-.58594,1.75782t-.293,1.084a11.822,11.822,0,0,0-.82031,1.46484,2.91931,2.91931,0,0,0-.293,1.20118,7.95166,7.95166,0,0,0,.42481,2.09472q.4248,1.39161,1.21582,3.47168,1.14258,2.8125,2.28515,5.85938,1.05469,3.39843,2.22657,6.5332t2.43164,6.03516a45.87036,45.87036,0,0,0,2.13867,4.49707q.84962,1.47948,1.25977,1.47949a.543.543,0,0,0,.51269-.41016,3.78555,3.78555,0,0,0,.16113-1.28906,6.072,6.072,0,0,1,.08789-.9082,9.19268,9.19268,0,0,1,.293-1.23047q.32228-.9375.61524-2.13867.35155-1.8457.64453-3.208t.49805-2.3584a23.42334,23.42334,0,0,0,.32226-2.666q.17578-2.05077.35156-5.50781a5.99244,5.99244,0,0,1,.11719-.99609q.1172-.64453.23438-1.43555.14647-.82031.21972-1.3916a8.239,8.239,0,0,0,.07324-1.04,24.03877,24.03877,0,0,0-.17578-2.417q-.17577-1.59667-.17578-2.3877.52734-2.22656.9668-4.33593.38087-1.81641.73242-3.03223t.61524-1.86035a8.80173,8.80173,0,0,1,1.3623-2.19727,7.15865,7.15865,0,0,1,1.80176-1.52344h.26367a.50977.50977,0,0,1,.61523.58594,9.14873,9.14873,0,0,1-.32226,1.14258q.11718.61524.20508,1.31836a11.515,11.515,0,0,1-.23438,1.49414,8.47987,8.47987,0,0,0-.14648,1.17187q-.0586.791-.0586,1.9043,0,.43945-.11718,1.83106t-.38086,3.70605q-.20508,3.31054-.5127,6.57715t-.62988,6.51855q-.26367,3.95508-.791,7.207a50.287,50.287,0,0,1-1.25976,5.80078,26.15,26.15,0,0,1-.65918,3.457q-.48341,1.9043-1.21582,4.10156l-1.084,1.75781a12.71494,12.71494,0,0,1-2.22656.89356,17.72076,17.72076,0,0,1-2.34375.74707q-.52734,0-1.582-1.377a28.27122,28.27122,0,0,1-2.49024-4.21875q-1.37694-2.57812-2.18261-4.248a16.74783,16.74783,0,0,1-1.04-2.51953q-.05859-.293-.20508-.791t-.32227-1.14258q-.70312-1.52343-1.77246-3.80859t-2.47558-5.41992a8.83349,8.83349,0,0,0-.60059-1.50879,15.16008,15.16008,0,0,0-.89355-1.50879l-.26367.08789q-.23437.70313-.4834,1.75781t-.57129,2.54883a15.20474,15.20474,0,0,1-.73242,1.66992q-.52736,2.05078-1.20118,4.43848t-1.43554,5.1416q-.20508.90821-.42481,1.88965t-.4834,2.03613l-.64453,1.17188q-.14647,1.05468-.32226,2.05078-.23437.82031-.60059,1.96289t-.89355,2.72461a2.14,2.14,0,0,1-.5127,1.20117,1.5496,1.5496,0,0,1-1.09863.43945,1.20256,1.20256,0,0,1-.293.30762,1.90413,1.90413,0,0,1-.70313.27832h-.11718q-.26367,0-.41016-.35156a3.63634,3.63634,0,0,1-.17578-1.28906,10.5314,10.5314,0,0,1,.17578-1.55274q.17578-1.05468.52734-2.666.38086-1.81641.61524-2.85645t.293-1.30371q.14648-.84962.32226-2.22656t.38086-3.16407q.0879-.46875.23438-1.14257t.41015-1.61133q.17578-.70312.70313-3.8086t1.37695-8.67187Q523.05443,404.3149,523.904,398.80708Z"/><path d="M563.906,388.02583a18.87831,18.87831,0,0,1,3.16406-.64453,31.72773,31.72773,0,0,1,3.7793-.20508,8.25142,8.25142,0,0,1,1.14258.11719,8.38358,8.38358,0,0,0,1.20117.11718q.67383.11719,1.02539.20508.38085.11719,1.05469.26367l.99609-.293a1.6482,1.6482,0,0,1,.67383.26368q.38085.23438.9082.52734a7.81631,7.81631,0,0,1,.791-.43945,1.06845,1.06845,0,0,1,.86425.41015,2.36119,2.36119,0,0,1,.45411,1.14258v1.084a8.29639,8.29639,0,0,1-.0879,1.17187v.17578a4.95112,4.95112,0,0,0,.0586.67383q.05859.61524.05859.9375a.76117.76117,0,0,1-.17578.55664.63352.63352,0,0,1-.46875.17578,15.7502,15.7502,0,0,1-2.62207-.21972,15.52282,15.52282,0,0,1-2.62207-.68848q-1.11329.20508-1.96289.32226a3.05492,3.05492,0,0,0-.98145.20508q-.3076.14649-.30761.35157a5.69673,5.69673,0,0,0,.38086.52734,2.56092,2.56092,0,0,0,.58593.52734,2.10271,2.10271,0,0,1,.57129.76172,12.98425,12.98425,0,0,1,.65918,1.55274,3.774,3.774,0,0,1,.20508.73242,4.10119,4.10119,0,0,1,.05859.67383,14.63872,14.63872,0,0,1-.14648,1.8457,16.747,16.747,0,0,1-.32227,1.81641q-.32226,1.37694-.498,2.2705t-.26367,1.36231a4.63985,4.63985,0,0,0-.11719.835q-.0293.48339-.0586,1.12793a5.60372,5.60372,0,0,1-.27832,1.31836q-.249.791-.51269,1.8164a6.30146,6.30146,0,0,1-.10254,1.04q-.10254.60059-.27832,1.36231a5.73015,5.73015,0,0,1-.32227,1.05469,12.17228,12.17228,0,0,0-.43945,1.34765q.05859.52734.08789,1.084-.11718.99609-.26367,2.05078-.20508,1.49413-.42481,3.04687t-.3955,2.98828q-.20508.43945-.43946.9668a4.986,4.986,0,0,0,.08789.74707,5.15863,5.15863,0,0,1,.0879.835,6.42042,6.42042,0,0,1-.14649,1.12793,6.39408,6.39408,0,0,0-.14648,1.09863q0,.67383-.0293,2.08008t-.0293,2.10938q.17579.58593.293,1.14258a3.74049,3.74049,0,0,1-.21973.80566,1.29437,1.29437,0,0,1-.33691.4834,9.91582,9.91582,0,0,1-1.14258.61523q-.35156.35157-.58593.57129a.65577.65577,0,0,1-.41016.21973,1.99928,1.99928,0,0,1-1.084-.21973.66527.66527,0,0,1-.32226-.57129,21.52257,21.52257,0,0,1,.23437-2.25586,2.93773,2.93773,0,0,1-.14648-.41015,6.79559,6.79559,0,0,0-.26367-.70313q-.17578-2.7246-.46875-5.625.11718-2.05079.11719-4.16015,0-.9961.08789-2.49024t.32226-3.457q.26367-1.96288.36621-3.44238t.10254-2.44629a8.124,8.124,0,0,1,.08789-1.05469q.0879-.64454.20508-1.61133.08788-.791.19043-1.45019a7.79406,7.79406,0,0,0,.10254-1.18653q0-.26367-.0293-.58593t-.05859-.55664q.35155-.87891.52734-1.43555a3.21156,3.21156,0,0,0,.17578-.73242q-.14648-.43946-.32226-.90821a10.6872,10.6872,0,0,0,.4541-1.77246q.249-1.27441.542-3.35449V396.727q0-.58594.0293-1.43555l-.20508-.64453q-.14649-.05859-.5127-.16113a8.11311,8.11311,0,0,0-.95214-.19043l-.43946.32226q-.46875.11719-.9375.21973t-.99609.249q-3.66212,1.0254-7.23633,1.99219a.56986.56986,0,0,1-.46875-.21972.98739.98739,0,0,1-.17578-.62989,2.81275,2.81275,0,0,1,.17578-.73242,12.31419,12.31419,0,0,1,.58594-1.377q.05859-1.23047.16113-2.03613a6.16066,6.16066,0,0,1,.249-1.21583,3.33857,3.33857,0,0,1,.86425-1.31835,3.70811,3.70811,0,0,1,1.36231-.791,16.86266,16.86266,0,0,1,3.04687-.70313,12.78994,12.78994,0,0,1,1.46485-.08789A10.09119,10.09119,0,0,1,563.906,388.02583Z"/><path d="M585.24583,421.18989a12.033,12.033,0,0,0-.35156-2.31445,12.06665,12.06665,0,0,1-.35156-2.37305q0-.46875.08789-1.43555t.08789-1.43554q0-1.28907-.16114-3.91114t-.16113-3.91113q0-2.19726.249-5.63965t.68847-8.07129a6.77947,6.77947,0,0,1,.77637-2.57812,1.64257,1.64257,0,0,1,1.45019-.87891.79468.79468,0,0,1,.61524.42481,7.184,7.184,0,0,1,.64453,1.27441q.82032.76171,1.61133,1.40625a3.46,3.46,0,0,1,.9668,1.37695,5.36683,5.36683,0,0,1,.32226,1.96289,13.71162,13.71162,0,0,1-.43945,2.9004,13.60911,13.60911,0,0,0-.43946,2.8125,30.15913,30.15913,0,0,1-.13183,3.09082,9.03279,9.03279,0,0,1-.36621,1.91894l-.38086,1.11328.26367,2.37305q-.08788,1.99218-.14648,4.16016a28.70421,28.70421,0,0,0,.35156,4.42382,42.83023,42.83023,0,0,0,.9668,4.541,13.7587,13.7587,0,0,0,2.05078,4.67285,3.423,3.423,0,0,0,2.72461,1.56738,2.87887,2.87887,0,0,0,1.42089-.36621,4.028,4.028,0,0,0,1.24512-1.15722q.46875-.61524.89356-1.28907t.835-1.31836a11.6437,11.6437,0,0,0,.99609-1.42089q.52734-.86427,1.14258-2.03614.61524-2.10937,1.34766-4.26269t1.46484-4.32129l.4541-1.81641q.27832-1.11328.57129-2.54883a32.69627,32.69627,0,0,0,1.31836-4.89257q.64454-3.13477,1.46484-7.58789.26367-.70312.67383-1.78711t.9375-2.54883q.14649-.52734.52734-1.64063t1.084-2.84179a2.33823,2.33823,0,0,1,1.02539-1.28907,3.4756,3.4756,0,0,1,1.81641-.43945q.67381,0,.98144.86426a8.33987,8.33987,0,0,1,.30762,2.62207,49.35827,49.35827,0,0,1-.835,8.17383,109.80482,109.80482,0,0,1-2.59278,11.04492,14.01081,14.01081,0,0,1-.32226,1.4209q-.23437.86425-.55664,1.94824-.02929.67383-.14649,1.53809t-.35156,1.97753a39.26783,39.26783,0,0,0-.92285,4.2334q-.36621,2.24121-.57129,4.67285a6.29756,6.29756,0,0,1-.13184,1.05469q-.13184.70313-.33691,1.69922a15.51364,15.51364,0,0,0-.27832,1.74316q-.07325.77637-.07324,1.4502.11718.9375.20508,1.78711a7.77752,7.77752,0,0,1,.70312.835,1.05747,1.05747,0,0,1,.23438.542,6.67908,6.67908,0,0,1-.73243,1.34766,12.37983,12.37983,0,0,1-1.31836,1.582,7.23242,7.23242,0,0,1-1.65527,1.4502,2.92451,2.92451,0,0,1-1.47949.48339,1.62223,1.62223,0,0,1-1.21582-.791,2.51665,2.51665,0,0,1-.60059-1.49414V435.018a4.12779,4.12779,0,0,0,.23438-.82032.87293.87293,0,0,0-.08789-.36621,2.18871,2.18871,0,0,1-.14649-.51269q.05861-.17579.20508-.52735t.293-.791a3.75676,3.75676,0,0,1-.17578-.42481,5.43405,5.43405,0,0,0-.26367-.60058,2.51233,2.51233,0,0,0,.14648-.5127,5.96762,5.96762,0,0,1,.20508-.74707,5.08368,5.08368,0,0,0-.05859-.70312q.0293-.26369.10253-.73243t.16114-1.17187q.14648-.58595.23437-.99609a3.23656,3.23656,0,0,0,.08789-.61524,1.18011,1.18011,0,0,0-.08789-.46875.45453.45453,0,0,0-.23437-.26367,1.50537,1.50537,0,0,0-.57129.51269,9.9714,9.9714,0,0,0-.835,1.27442q-.55665.9375-.95215,1.52344t-.542.791l-.14649.498q-.9375,1.28906-1.68457,2.15332a16.547,16.547,0,0,1-1.12793,1.21582,8.77188,8.77188,0,0,1-1.59668,1.084,10.35249,10.35249,0,0,1-2.24121.84961,5.55735,5.55735,0,0,0-1.23047.35157,7.21114,7.21114,0,0,1-2.34375-.35157,3.34926,3.34926,0,0,1-1.55273-.99609,16.83824,16.83824,0,0,1-3.19336-5.58106A21.27227,21.27227,0,0,1,585.24583,421.18989Z"/><path d="M631.83958,417.99653a3.39877,3.39877,0,0,0,1.01074,1.88965,27.52772,27.52772,0,0,0,3.00293,2.88574q1.28907,1.11329,2.68067,2.13867t2.76855,2.08008q.58594.498,1.53809,1.28906t2.21191,1.84571q.9375.70313,1.9336,1.40625t2.168,1.40625q.76173.61523,1.71387,1.30371.95215.687,2.18262,1.50879a2.66236,2.66236,0,0,1,1.084,1.52343,10.70675,10.70675,0,0,1,.46875,2.8711l-.32226.9082-.35156.17578a2.2848,2.2848,0,0,1-.9375-.293,14.33231,14.33231,0,0,1-1.46485-.8789q-.17578-.0879-1.59668-.76172-1.42089-.6753-4.08691-1.9043a16.98382,16.98382,0,0,1-2.72461-1.40625,18.37635,18.37635,0,0,1-2.22656-1.66992,17.88551,17.88551,0,0,0-1.53809-1.15723q-.92284-.62988-2.21191-1.3623-1.28907-.76172-2.24122-1.4209t-1.50878-1.12793q-1.90431-1.55274-3.09082-2.3584a3.88594,3.88594,0,0,0-1.65528-.80566,1.9519,1.9519,0,0,0-.38086,1.02539q-.43945,1.64063-.9082,4.16016t-1.02539,5.85937a1.45706,1.45706,0,0,1-.21973.87891.74245.74245,0,0,1-.62988.293,2.93811,2.93811,0,0,1-2.08008-.65918,2.62736,2.62736,0,0,1-.70312-2.00684,31.66753,31.66753,0,0,1,.23437-3.75,35.15834,35.15834,0,0,1,.76172-4.13086q.17578-.96679.26367-1.71387a11.95517,11.95517,0,0,0,.08789-1.3916,3.49416,3.49416,0,0,0-1.3916-2.76855q-1.3916-1.15724-1.3916-1.65528a3.581,3.581,0,0,1,.23437-1.3623,2.24711,2.24711,0,0,1,.67383-.92285q1.17188-.73242,2.13867-1.40625a.73346.73346,0,0,0,.35157-.4834,3.81744,3.81744,0,0,0,.08789-.92285V413.602q.08788-3.13476.17578-6.50391v-.76172q0-.52734-.08789-1.37695-.0293-.43946-.0293-.82031v-.38086q.0293-.52734.0293-.9668-.20508-.70312-.36621-1.21582a3.27149,3.27149,0,0,1-.16114-.98144q0-.41016.07325-1.30371t.07324-1.30371q0-.46875-.08789-1.34766t-.08789-1.34766a5.28373,5.28373,0,0,1,.58594-2.417,8.60046,8.60046,0,0,1,1.7871-2.2998,9.19257,9.19257,0,0,1,2.3584-1.4795,6.3175,6.3175,0,0,1,2.47559-.51269q.61524,0,1.78711.08789t1.8457.08789a11.71751,11.71751,0,0,1,2.49024.76172q.82031.08788,1.45019.20508a5.91755,5.91755,0,0,1,1.01074.26367q.87891.41016,1.377.64453a3.00668,3.00668,0,0,0,.70312.26367q.58595.20508,1.02539.35156a2.84222,2.84222,0,0,1,.73242.35157q.43945.20508,1.05469.4834t1.40625.62988a15.65914,15.65914,0,0,1,2.37305,1.49414,20.67463,20.67463,0,0,1,2.08008,1.8164,9.859,9.859,0,0,1,1.69922,2.47559,5.768,5.768,0,0,1,.55664,2.417q0,.35157-.0586.9961t-.17578,1.46484a4.39068,4.39068,0,0,1-1.06934,2.19727,17.48547,17.48547,0,0,1-2.73925,2.57812,31.39583,31.39583,0,0,1-2.959,2.06543,11.46876,11.46876,0,0,1-2.51953,1.18652,2.78384,2.78384,0,0,0-.70312.58594,7.61107,7.61107,0,0,1-1.4795.98145q-1.12793.62988-3.06152,1.59668-3.51562,1.69921-4.99512,2.25586T631.83958,417.99653Zm-3.6914-16.93359q.67381-.498,1.27441-.9668a2.42588,2.42588,0,0,1,1.53809-.46875q.43944,0,1.05468.92285a2.96017,2.96017,0,0,1,.61524,1.3916,7.9457,7.9457,0,0,1-.17578,1.11328q-.17579.87891-.58594,2.40235-.791,3.39843-.89356,4.26269t-.4541,2.68067a12.11283,12.11283,0,0,0-.293,1.20117.751.751,0,0,0,.11719.46875.42314.42314,0,0,0,.35156.14648q6.97266-3.51562,7.23633-3.66211.26367-.08788.58594-.20507a5.82776,5.82776,0,0,0,.61523-.26368l.52735-.67382q2.02148-1.28907,4.21875-2.75391a9.08282,9.08282,0,0,0,2.02148-2.08008,3.71127,3.71127,0,0,0,.67383-2.05078,3.49733,3.49733,0,0,0-1.50879-2.56348,15.78271,15.78271,0,0,0-4.52637-2.417,31.11991,31.11991,0,0,0-4.6875-1.49414,17.83029,17.83029,0,0,0-3.83789-.46875,5.98379,5.98379,0,0,0-3.39843.791,2.6365,2.6365,0,0,0-1.14258,2.31445,7.05279,7.05279,0,0,0,.17578,1.81641q.14648.55663.43945.55664Z"/><path d="M685.3181,427.25434l1.31836,3.22266q-.38086.35156-.92286.76172a14.39772,14.39772,0,0,1-1.27441.84961q-.76172.26367-1.78711.71777t-2.373,1.04a17.69225,17.69225,0,0,1-1.66992.95215,2.58516,2.58516,0,0,1-.9082.30762,6.67975,6.67975,0,0,0-1.65527.3955q-1.21582.39552-3.17871,1.15723-1.05469.37939-2.24122.791-1.18652.41015-2.44628.73242l-2.168-.46875-1.34766.58594q-.67383,0-1.34766-.01465c-.44921-.01075-.88867-.03418-1.31836-.07325a3.94264,3.94264,0,0,1-1.53808-.27832.7803.7803,0,0,1-.5127-.71777l.23438-1.31836-.23438-.26367a2.83164,2.83164,0,0,1-1.582-.30762q-.41016-.30762-.41015-1.47949,0-.52734.05859-1.75781t.14648-3.19336a2.55541,2.55541,0,0,1,.23438-.73242,2.4283,2.4283,0,0,0,.23437-.82032,2.548,2.548,0,0,1-.21972-.55664,1.825,1.825,0,0,1-.04395-.38086q.0879-1.37694.30762-3.38378t.57129-4.73145a29.41846,29.41846,0,0,0,.70312-3.7207q-.05859-1.55274-.11718-3.16407,1.28906-5.85937,2.666-11.748a5.98446,5.98446,0,0,1,.791-2.00684,12.645,12.645,0,0,1,1.377-1.83105,2.21405,2.21405,0,0,0,.46875-.38086q.17578-.32227.4541-.791t.65918-1.084q.20508-.14649.68848-.42481t1.27441-.77636q.35157-.26369.82031-.65918t1.05469-.92286a22.63143,22.63143,0,0,0,2.49024-1.68457,5.8049,5.8049,0,0,1,2.84179-1.12793q.82032-.02929,1.626-.07324t1.53809-.13183a8.43722,8.43722,0,0,1,1.23046-.17579,6.02284,6.02284,0,0,0,.61524-.13183,1.86348,1.86348,0,0,1,.49805-.07324,3.86364,3.86364,0,0,1,.57128.05859q.36622.05859,1.01075.14648.46875.02931.82031.0293t.67383-.0293a4.30891,4.30891,0,0,1,2.08008,1.24512,2.89517,2.89517,0,0,1,.67382,1.919,10.03612,10.03612,0,0,1-.48339,3.60351,1.58591,1.58591,0,0,1-1.4795,1.17188,2.957,2.957,0,0,1-1.77246-.791q-.98143-.791-5.31738-.791-1.78712.35156-3.54492.70312a1.34811,1.34811,0,0,1-.39551.43945,1.71041,1.71041,0,0,1-.39551.20508l-1.23047-.46875a3.407,3.407,0,0,0-1.28906,1.17188,14.39494,14.39494,0,0,0-1.46484,2.60742,3.12332,3.12332,0,0,0-.26367.87891,7.57042,7.57042,0,0,0-.0879,1.23046q-.64452,2.51954-1.25976,4.89258-.61524,2.51953-.98145,3.82325t-.4248,1.56738q-.1172.35156-.19043.67383a2.89983,2.89983,0,0,0-.07324.64453,1.1773,1.1773,0,0,0,.17578.68847.60291.60291,0,0,0,.52734.249q.32228,0,1.53809-1.15723a5.2256,5.2256,0,0,1,1.80176-1.30371q.76171-.20508,1.50878-.4541t1.56739-.60059q.32226-.08788,1.66992-.26367t3.7793-.43945l.96679.293,1.875-.35157.9961.43946a4.066,4.066,0,0,1,.64453.86425,8.039,8.039,0,0,1,.52734,1.12793,8.64542,8.64542,0,0,1-.4541,3.19336,1.47221,1.47221,0,0,1-1.3623,1.084l-1.9336-.76172q-2.40234.23438-4.73144.46875t-4.76075.43945a9.98522,9.98522,0,0,0-4.541,1.91895,4.934,4.934,0,0,0-1.75781,3.53027,10.8969,10.8969,0,0,1-.23438,1.3916q-.20508.95216-.498,2.3584l.23438,1.05469q-.293,1.52343-.46875,2.85644a18.45657,18.45657,0,0,0-.17578,2.3877.81087.81087,0,0,0,.11719.498q.05859.11718.14648.11718a.22483.22483,0,0,0,.08789-.02929q1.66992-.11719,2.69531-.20508.73242-.02929,1.14258-.0293h.293q.9082.05859,1.875.14649l2.19727-.17579a15.50593,15.50593,0,0,0,1.53808-.57128,5.718,5.718,0,0,1,2.124-.4834,9.96909,9.96909,0,0,0,2.06542-.21973,13.6728,13.6728,0,0,0,1.97754-.57129q.96681-.35156,1.88965-.71777t1.88965-.71778a4.63261,4.63261,0,0,0,.92285-.38085Q684.52708,427.69379,685.3181,427.25434Z"/></g></g></svg>